%TF.GenerationSoftware,KiCad,Pcbnew,8.0.8*%
%TF.CreationDate,2025-09-03T22:29:27+08:00*%
%TF.ProjectId,FrekLedMini,4672656b-4c65-4644-9d69-6e692e6b6963,rev?*%
%TF.SameCoordinates,Original*%
%TF.FileFunction,Copper,L2,Inr*%
%TF.FilePolarity,Positive*%
%FSLAX46Y46*%
G04 Gerber Fmt 4.6, Leading zero omitted, Abs format (unit mm)*
G04 Created by KiCad (PCBNEW 8.0.8) date 2025-09-03 22:29:27*
%MOMM*%
%LPD*%
G01*
G04 APERTURE LIST*
%TA.AperFunction,ComponentPad*%
%ADD10O,1.400000X1.150000*%
%TD*%
%TA.AperFunction,ViaPad*%
%ADD11C,0.600000*%
%TD*%
G04 APERTURE END LIST*
D10*
%TO.N,GND*%
%TO.C,J1*%
X113350000Y-121000000D03*
X108550000Y-121000000D03*
X113350000Y-116700000D03*
X108550000Y-116700000D03*
%TD*%
D11*
%TO.N,GND*%
X110500000Y-120800000D03*
X111600000Y-115500000D03*
%TO.N,+5V*%
X110500000Y-113700000D03*
X111500000Y-113700000D03*
X112200000Y-118800000D03*
X105350000Y-118200000D03*
X102700000Y-106200000D03*
X110400000Y-103200000D03*
X119900000Y-113500000D03*
X110200000Y-108600000D03*
X115000000Y-113500000D03*
X115000000Y-102800000D03*
X120200000Y-108900000D03*
X109700000Y-118900000D03*
X118100000Y-102800000D03*
X105700000Y-103200000D03*
X102400000Y-115300000D03*
X115400000Y-109200000D03*
X119800000Y-118200000D03*
X121305514Y-103594486D03*
%TO.N,GND*%
X106500000Y-115200000D03*
X114600000Y-119800000D03*
X107000000Y-119800000D03*
X114800000Y-117900000D03*
X117900000Y-105200000D03*
X120800000Y-100700000D03*
X110500000Y-115000000D03*
X109900000Y-107400000D03*
X107100000Y-117900000D03*
%TO.N,/LED1*%
X106000000Y-106200000D03*
%TO.N,/LED2*%
X105200000Y-106200000D03*
%TO.N,/LED3*%
X104400000Y-106200000D03*
%TO.N,/LED4*%
X103600000Y-106200000D03*
%TO.N,/LED5*%
X103487349Y-110363784D03*
%TO.N,/LED6*%
X102910002Y-109810002D03*
%TO.N,/LED7*%
X102200000Y-109400000D03*
%TO.N,/LED8*%
X101400000Y-109400000D03*
%TO.N,/LED9*%
X101400000Y-112100000D03*
%TO.N,/LED10*%
X102200000Y-112100000D03*
%TO.N,/LED11*%
X102862228Y-111637772D03*
%TO.N,/LED12*%
X103506525Y-111163557D03*
%TO.N,/LED13*%
X103299988Y-115300000D03*
%TO.N,/LED14*%
X104099991Y-115300000D03*
%TO.N,/LED15*%
X104900000Y-115300000D03*
%TO.N,/LED16*%
X105700000Y-115300000D03*
%TD*%
%TA.AperFunction,Conductor*%
%TO.N,+5V*%
G36*
X120018967Y-100220185D02*
G01*
X120064722Y-100272989D01*
X120074666Y-100342147D01*
X120068970Y-100365454D01*
X120014632Y-100520742D01*
X120014630Y-100520750D01*
X119994435Y-100699996D01*
X119994435Y-100700003D01*
X120014630Y-100879249D01*
X120014631Y-100879254D01*
X120074211Y-101049523D01*
X120170184Y-101202262D01*
X120297738Y-101329816D01*
X120450478Y-101425789D01*
X120620745Y-101485368D01*
X120620750Y-101485369D01*
X120799996Y-101505565D01*
X120800000Y-101505565D01*
X120800004Y-101505565D01*
X120979249Y-101485369D01*
X120979252Y-101485368D01*
X120979255Y-101485368D01*
X121149522Y-101425789D01*
X121302262Y-101329816D01*
X121429816Y-101202262D01*
X121525789Y-101049522D01*
X121558458Y-100956160D01*
X121599180Y-100899383D01*
X121664133Y-100873636D01*
X121732694Y-100887092D01*
X121783097Y-100935479D01*
X121799500Y-100997114D01*
X121799500Y-121675500D01*
X121779815Y-121742539D01*
X121727011Y-121788294D01*
X121675500Y-121799500D01*
X114466885Y-121799500D01*
X114399846Y-121779815D01*
X114354091Y-121727011D01*
X114344147Y-121657853D01*
X114366566Y-121602616D01*
X114384341Y-121578149D01*
X114394850Y-121563685D01*
X114471705Y-121412849D01*
X114524018Y-121251847D01*
X114550500Y-121084649D01*
X114550500Y-120915350D01*
X114523451Y-120744573D01*
X114532405Y-120675280D01*
X114577402Y-120621828D01*
X114632041Y-120601955D01*
X114779249Y-120585369D01*
X114779252Y-120585368D01*
X114779255Y-120585368D01*
X114949522Y-120525789D01*
X115102262Y-120429816D01*
X115229816Y-120302262D01*
X115325789Y-120149522D01*
X115385368Y-119979255D01*
X115389887Y-119939147D01*
X115405565Y-119800003D01*
X115405565Y-119799996D01*
X115385369Y-119620750D01*
X115385368Y-119620745D01*
X115325788Y-119450475D01*
X115241227Y-119315899D01*
X115222226Y-119248662D01*
X115242593Y-119181827D01*
X115242998Y-119181215D01*
X115263173Y-119151022D01*
X115311078Y-119035369D01*
X115335500Y-118912591D01*
X115335500Y-118787409D01*
X115311078Y-118664631D01*
X115300715Y-118639614D01*
X115293247Y-118570147D01*
X115324521Y-118507668D01*
X115327596Y-118504482D01*
X115334349Y-118497729D01*
X115429816Y-118402262D01*
X115525789Y-118249522D01*
X115585368Y-118079255D01*
X115605565Y-117900000D01*
X115605564Y-117899995D01*
X115585369Y-117720750D01*
X115585368Y-117720745D01*
X115550062Y-117619847D01*
X115525789Y-117550478D01*
X115506856Y-117520347D01*
X115431640Y-117400641D01*
X115429816Y-117397738D01*
X115302262Y-117270184D01*
X115291919Y-117263685D01*
X115149523Y-117174211D01*
X114979254Y-117114631D01*
X114979249Y-117114630D01*
X114800004Y-117094435D01*
X114799996Y-117094435D01*
X114656745Y-117110575D01*
X114587923Y-117098520D01*
X114536544Y-117051171D01*
X114518920Y-116983561D01*
X114523590Y-116956764D01*
X114522879Y-116956594D01*
X114524015Y-116951855D01*
X114524018Y-116951847D01*
X114537661Y-116865704D01*
X114550500Y-116784649D01*
X114550500Y-116615350D01*
X114524018Y-116448152D01*
X114477688Y-116305565D01*
X114471705Y-116287151D01*
X114471703Y-116287148D01*
X114471703Y-116287146D01*
X114413682Y-116173275D01*
X114394850Y-116136315D01*
X114357834Y-116085366D01*
X114295351Y-115999365D01*
X114295347Y-115999360D01*
X114175639Y-115879652D01*
X114175634Y-115879648D01*
X114038688Y-115780152D01*
X114038687Y-115780151D01*
X114038685Y-115780150D01*
X113991582Y-115756150D01*
X113887853Y-115703296D01*
X113726847Y-115650981D01*
X113559649Y-115624500D01*
X113559644Y-115624500D01*
X113140356Y-115624500D01*
X113140351Y-115624500D01*
X112973152Y-115650981D01*
X112812146Y-115703296D01*
X112661312Y-115780151D01*
X112564916Y-115850186D01*
X112499110Y-115873665D01*
X112431056Y-115857839D01*
X112382362Y-115807733D01*
X112368487Y-115739254D01*
X112374991Y-115708911D01*
X112385367Y-115679258D01*
X112385369Y-115679249D01*
X112405565Y-115500003D01*
X112405565Y-115499996D01*
X112385369Y-115320750D01*
X112385368Y-115320745D01*
X112378108Y-115299996D01*
X112325789Y-115150478D01*
X112307106Y-115120745D01*
X112231237Y-115000000D01*
X112229816Y-114997738D01*
X112102262Y-114870184D01*
X112070897Y-114850476D01*
X111949523Y-114774211D01*
X111779254Y-114714631D01*
X111779249Y-114714630D01*
X111600004Y-114694435D01*
X111599996Y-114694435D01*
X111420746Y-114714631D01*
X111420742Y-114714632D01*
X111384094Y-114727455D01*
X111314315Y-114731016D01*
X111253689Y-114696286D01*
X111229270Y-114656529D01*
X111228810Y-114656751D01*
X111226643Y-114652251D01*
X111226100Y-114651367D01*
X111225788Y-114650476D01*
X111175337Y-114570184D01*
X111129816Y-114497738D01*
X111002262Y-114370184D01*
X110849523Y-114274211D01*
X110679254Y-114214631D01*
X110679249Y-114214630D01*
X110500004Y-114194435D01*
X110499996Y-114194435D01*
X110320750Y-114214630D01*
X110320745Y-114214631D01*
X110150476Y-114274211D01*
X109997737Y-114370184D01*
X109870184Y-114497737D01*
X109774211Y-114650476D01*
X109714631Y-114820745D01*
X109714630Y-114820750D01*
X109694435Y-114999996D01*
X109694435Y-115000003D01*
X109714630Y-115179249D01*
X109714631Y-115179254D01*
X109774211Y-115349523D01*
X109855724Y-115479249D01*
X109870184Y-115502262D01*
X109997738Y-115629816D01*
X110076410Y-115679249D01*
X110114680Y-115703296D01*
X110150478Y-115725789D01*
X110188959Y-115739254D01*
X110320745Y-115785368D01*
X110320750Y-115785369D01*
X110499996Y-115805565D01*
X110500000Y-115805565D01*
X110500004Y-115805565D01*
X110679249Y-115785369D01*
X110679250Y-115785368D01*
X110679255Y-115785368D01*
X110715903Y-115772543D01*
X110785680Y-115768981D01*
X110846307Y-115803709D01*
X110870734Y-115843474D01*
X110871193Y-115843254D01*
X110873347Y-115847727D01*
X110873894Y-115848618D01*
X110874208Y-115849516D01*
X110874211Y-115849522D01*
X110970184Y-116002262D01*
X111097738Y-116129816D01*
X111250478Y-116225789D01*
X111420745Y-116285368D01*
X111420750Y-116285369D01*
X111599996Y-116305565D01*
X111600000Y-116305565D01*
X111600004Y-116305565D01*
X111779249Y-116285369D01*
X111779252Y-116285368D01*
X111779255Y-116285368D01*
X111949522Y-116225789D01*
X112035272Y-116171908D01*
X112102506Y-116152908D01*
X112169342Y-116173275D01*
X112214556Y-116226542D01*
X112223795Y-116295798D01*
X112219174Y-116315220D01*
X112175982Y-116448148D01*
X112175982Y-116448151D01*
X112149500Y-116615350D01*
X112149500Y-116784649D01*
X112175981Y-116951847D01*
X112228296Y-117112853D01*
X112305152Y-117263688D01*
X112404648Y-117400634D01*
X112404652Y-117400639D01*
X112524360Y-117520347D01*
X112524365Y-117520351D01*
X112565832Y-117550478D01*
X112661315Y-117619850D01*
X112757425Y-117668820D01*
X112812146Y-117696703D01*
X112812148Y-117696703D01*
X112812151Y-117696705D01*
X112898450Y-117724745D01*
X112973152Y-117749018D01*
X113140351Y-117775500D01*
X113140356Y-117775500D01*
X113559649Y-117775500D01*
X113726847Y-117749018D01*
X113734270Y-117746606D01*
X113839169Y-117712521D01*
X113909008Y-117710526D01*
X113968841Y-117746606D01*
X113999670Y-117809307D01*
X114000706Y-117844336D01*
X113994435Y-117899995D01*
X113994435Y-117900003D01*
X114014630Y-118079249D01*
X114014631Y-118079254D01*
X114074211Y-118249523D01*
X114158772Y-118384101D01*
X114177772Y-118451338D01*
X114157404Y-118518173D01*
X114156882Y-118518962D01*
X114136828Y-118548975D01*
X114136823Y-118548984D01*
X114088923Y-118664626D01*
X114088920Y-118664638D01*
X114064500Y-118787404D01*
X114064500Y-118912595D01*
X114088920Y-119035361D01*
X114088920Y-119035364D01*
X114099284Y-119060384D01*
X114106752Y-119129854D01*
X114075476Y-119192333D01*
X114072404Y-119195516D01*
X113970185Y-119297736D01*
X113970184Y-119297737D01*
X113874211Y-119450476D01*
X113814631Y-119620745D01*
X113814630Y-119620750D01*
X113794435Y-119799996D01*
X113794435Y-119800004D01*
X113794749Y-119802791D01*
X113794435Y-119804583D01*
X113794435Y-119806964D01*
X113794018Y-119806964D01*
X113782694Y-119871613D01*
X113735345Y-119922992D01*
X113667735Y-119940616D01*
X113652132Y-119939147D01*
X113559651Y-119924500D01*
X113559644Y-119924500D01*
X113140356Y-119924500D01*
X113140351Y-119924500D01*
X112973152Y-119950981D01*
X112812146Y-120003296D01*
X112661311Y-120080152D01*
X112524365Y-120179648D01*
X112524360Y-120179652D01*
X112404652Y-120299360D01*
X112404648Y-120299365D01*
X112305152Y-120436311D01*
X112228296Y-120587146D01*
X112175981Y-120748152D01*
X112149500Y-120915350D01*
X112149500Y-121084649D01*
X112175981Y-121251847D01*
X112228296Y-121412853D01*
X112305151Y-121563687D01*
X112333434Y-121602616D01*
X112356913Y-121668422D01*
X112341087Y-121736476D01*
X112290981Y-121785170D01*
X112233115Y-121799500D01*
X110797114Y-121799500D01*
X110730075Y-121779815D01*
X110684320Y-121727011D01*
X110674376Y-121657853D01*
X110703401Y-121594297D01*
X110756160Y-121558458D01*
X110792531Y-121545730D01*
X110849522Y-121525789D01*
X111002262Y-121429816D01*
X111129816Y-121302262D01*
X111225789Y-121149522D01*
X111285368Y-120979255D01*
X111292568Y-120915356D01*
X111305565Y-120800003D01*
X111305565Y-120799996D01*
X111285369Y-120620750D01*
X111285368Y-120620745D01*
X111272988Y-120585366D01*
X111225789Y-120450478D01*
X111129816Y-120297738D01*
X111002262Y-120170184D01*
X110969379Y-120149522D01*
X110849523Y-120074211D01*
X110679254Y-120014631D01*
X110679249Y-120014630D01*
X110500004Y-119994435D01*
X110499996Y-119994435D01*
X110320750Y-120014630D01*
X110320745Y-120014631D01*
X110150476Y-120074211D01*
X109997737Y-120170184D01*
X109870184Y-120297737D01*
X109870182Y-120297740D01*
X109793346Y-120420022D01*
X109741011Y-120466313D01*
X109671958Y-120476960D01*
X109608109Y-120448585D01*
X109588035Y-120426934D01*
X109495351Y-120299365D01*
X109495347Y-120299360D01*
X109375639Y-120179652D01*
X109375634Y-120179648D01*
X109238688Y-120080152D01*
X109238687Y-120080151D01*
X109238685Y-120080150D01*
X109191582Y-120056150D01*
X109087853Y-120003296D01*
X108926847Y-119950981D01*
X108759649Y-119924500D01*
X108759644Y-119924500D01*
X108340356Y-119924500D01*
X108340351Y-119924500D01*
X108173152Y-119950981D01*
X108012143Y-120003297D01*
X107973996Y-120022735D01*
X107905327Y-120035631D01*
X107840587Y-120009354D01*
X107800330Y-119952248D01*
X107794482Y-119898366D01*
X107805565Y-119800002D01*
X107805565Y-119799996D01*
X107785369Y-119620750D01*
X107785368Y-119620745D01*
X107725788Y-119450476D01*
X107647329Y-119325610D01*
X107628329Y-119258374D01*
X107648697Y-119191538D01*
X107664634Y-119171965D01*
X107688496Y-119148104D01*
X107752414Y-119037396D01*
X107785500Y-118913917D01*
X107785500Y-118850000D01*
X107785500Y-118810118D01*
X107785500Y-118786083D01*
X107752414Y-118662604D01*
X107739142Y-118639617D01*
X107696425Y-118565629D01*
X107679951Y-118497729D01*
X107702803Y-118431702D01*
X107716121Y-118415956D01*
X107729816Y-118402262D01*
X107825789Y-118249522D01*
X107885368Y-118079255D01*
X107905565Y-117900000D01*
X107905564Y-117899995D01*
X107899293Y-117844338D01*
X107911347Y-117775516D01*
X107958695Y-117724136D01*
X108026306Y-117706511D01*
X108060828Y-117712521D01*
X108128917Y-117734644D01*
X108173152Y-117749018D01*
X108340351Y-117775500D01*
X108340356Y-117775500D01*
X108759649Y-117775500D01*
X108926847Y-117749018D01*
X108934270Y-117746606D01*
X109087849Y-117696705D01*
X109238685Y-117619850D01*
X109375641Y-117520346D01*
X109495346Y-117400641D01*
X109594850Y-117263685D01*
X109671705Y-117112849D01*
X109724018Y-116951847D01*
X109750500Y-116784649D01*
X109750500Y-116615350D01*
X109724018Y-116448152D01*
X109677688Y-116305565D01*
X109671705Y-116287151D01*
X109671703Y-116287148D01*
X109671703Y-116287146D01*
X109613682Y-116173275D01*
X109594850Y-116136315D01*
X109557834Y-116085366D01*
X109495351Y-115999365D01*
X109495347Y-115999360D01*
X109375639Y-115879652D01*
X109375634Y-115879648D01*
X109238688Y-115780152D01*
X109238687Y-115780151D01*
X109238685Y-115780150D01*
X109191582Y-115756150D01*
X109087853Y-115703296D01*
X108926847Y-115650981D01*
X108759649Y-115624500D01*
X108759644Y-115624500D01*
X108340356Y-115624500D01*
X108340351Y-115624500D01*
X108173152Y-115650981D01*
X108012146Y-115703296D01*
X107861311Y-115780152D01*
X107724365Y-115879648D01*
X107724360Y-115879652D01*
X107604652Y-115999360D01*
X107604648Y-115999365D01*
X107505152Y-116136311D01*
X107428296Y-116287146D01*
X107375981Y-116448152D01*
X107349500Y-116615350D01*
X107349500Y-116784649D01*
X107375982Y-116951848D01*
X107377121Y-116956594D01*
X107375300Y-116957030D01*
X107377058Y-117018898D01*
X107340968Y-117078725D01*
X107278262Y-117109542D01*
X107243254Y-117110575D01*
X107100004Y-117094435D01*
X107099996Y-117094435D01*
X106920750Y-117114630D01*
X106920745Y-117114631D01*
X106750476Y-117174211D01*
X106597737Y-117270184D01*
X106470184Y-117397737D01*
X106374211Y-117550476D01*
X106314631Y-117720745D01*
X106314630Y-117720750D01*
X106294435Y-117899996D01*
X106294435Y-117900003D01*
X106314630Y-118079249D01*
X106314631Y-118079254D01*
X106374211Y-118249523D01*
X106470184Y-118402262D01*
X106597737Y-118529815D01*
X106603184Y-118534159D01*
X106601501Y-118536268D01*
X106639653Y-118579392D01*
X106650308Y-118648444D01*
X106647170Y-118664156D01*
X106614500Y-118786083D01*
X106614500Y-118913916D01*
X106632760Y-118982064D01*
X106631097Y-119051914D01*
X106591934Y-119109776D01*
X106578960Y-119119148D01*
X106561923Y-119129854D01*
X106497737Y-119170184D01*
X106370184Y-119297737D01*
X106274211Y-119450476D01*
X106214631Y-119620745D01*
X106214630Y-119620750D01*
X106194435Y-119799996D01*
X106194435Y-119800003D01*
X106214630Y-119979249D01*
X106214631Y-119979254D01*
X106274211Y-120149523D01*
X106293144Y-120179654D01*
X106370184Y-120302262D01*
X106497738Y-120429816D01*
X106650478Y-120525789D01*
X106765152Y-120565915D01*
X106820745Y-120585368D01*
X106820750Y-120585369D01*
X106999996Y-120605565D01*
X107000000Y-120605565D01*
X107000004Y-120605565D01*
X107179249Y-120585369D01*
X107179251Y-120585368D01*
X107179255Y-120585368D01*
X107179258Y-120585366D01*
X107179262Y-120585366D01*
X107224671Y-120569477D01*
X107294450Y-120565915D01*
X107355077Y-120600643D01*
X107387305Y-120662636D01*
X107383558Y-120724834D01*
X107375982Y-120748151D01*
X107349500Y-120915350D01*
X107349500Y-121084649D01*
X107375981Y-121251847D01*
X107428296Y-121412853D01*
X107505151Y-121563687D01*
X107533434Y-121602616D01*
X107556913Y-121668422D01*
X107541087Y-121736476D01*
X107490981Y-121785170D01*
X107433115Y-121799500D01*
X100324500Y-121799500D01*
X100257461Y-121779815D01*
X100211706Y-121727011D01*
X100200500Y-121675500D01*
X100200500Y-115299996D01*
X102494423Y-115299996D01*
X102494423Y-115300003D01*
X102514618Y-115479249D01*
X102514619Y-115479254D01*
X102574199Y-115649523D01*
X102625765Y-115731589D01*
X102670172Y-115802262D01*
X102797726Y-115929816D01*
X102886133Y-115985366D01*
X102948242Y-116024392D01*
X102950466Y-116025789D01*
X103120727Y-116085366D01*
X103120733Y-116085368D01*
X103120738Y-116085369D01*
X103299984Y-116105565D01*
X103299988Y-116105565D01*
X103299992Y-116105565D01*
X103479237Y-116085369D01*
X103479239Y-116085368D01*
X103479243Y-116085368D01*
X103479246Y-116085366D01*
X103479250Y-116085366D01*
X103656083Y-116023489D01*
X103656834Y-116025637D01*
X103715116Y-116016035D01*
X103743580Y-116024391D01*
X103743896Y-116023489D01*
X103920736Y-116085368D01*
X103920741Y-116085369D01*
X104099987Y-116105565D01*
X104099991Y-116105565D01*
X104099995Y-116105565D01*
X104279240Y-116085369D01*
X104279242Y-116085368D01*
X104279246Y-116085368D01*
X104279249Y-116085366D01*
X104279253Y-116085366D01*
X104456086Y-116023489D01*
X104456838Y-116025639D01*
X104515103Y-116016031D01*
X104543588Y-116024393D01*
X104543905Y-116023489D01*
X104720745Y-116085368D01*
X104720750Y-116085369D01*
X104899996Y-116105565D01*
X104900000Y-116105565D01*
X104900004Y-116105565D01*
X105079249Y-116085369D01*
X105079251Y-116085368D01*
X105079255Y-116085368D01*
X105079258Y-116085366D01*
X105079262Y-116085366D01*
X105256095Y-116023489D01*
X105256846Y-116025637D01*
X105315128Y-116016035D01*
X105343588Y-116024392D01*
X105343905Y-116023489D01*
X105520737Y-116085366D01*
X105520743Y-116085367D01*
X105520745Y-116085368D01*
X105520746Y-116085368D01*
X105520750Y-116085369D01*
X105699996Y-116105565D01*
X105700000Y-116105565D01*
X105700004Y-116105565D01*
X105879249Y-116085369D01*
X105879252Y-116085368D01*
X105879255Y-116085368D01*
X106049522Y-116025789D01*
X106051746Y-116024392D01*
X106091583Y-115999360D01*
X106137293Y-115970638D01*
X106204527Y-115951638D01*
X106244219Y-115958591D01*
X106320737Y-115985366D01*
X106320743Y-115985367D01*
X106320745Y-115985368D01*
X106320746Y-115985368D01*
X106320750Y-115985369D01*
X106499996Y-116005565D01*
X106500000Y-116005565D01*
X106500004Y-116005565D01*
X106679249Y-115985369D01*
X106679252Y-115985368D01*
X106679255Y-115985368D01*
X106849522Y-115925789D01*
X107002262Y-115829816D01*
X107129816Y-115702262D01*
X107225789Y-115549522D01*
X107285368Y-115379255D01*
X107291960Y-115320750D01*
X107305565Y-115200003D01*
X107305565Y-115199996D01*
X107285369Y-115020750D01*
X107285368Y-115020745D01*
X107278108Y-114999996D01*
X107225789Y-114850478D01*
X107207106Y-114820745D01*
X107140431Y-114714632D01*
X107129816Y-114697738D01*
X107002262Y-114570184D01*
X106937293Y-114529361D01*
X106849523Y-114474211D01*
X106679254Y-114414631D01*
X106679249Y-114414630D01*
X106500004Y-114394435D01*
X106499996Y-114394435D01*
X106320750Y-114414630D01*
X106320737Y-114414633D01*
X106150479Y-114474209D01*
X106062705Y-114529361D01*
X105995468Y-114548361D01*
X105955781Y-114541409D01*
X105879255Y-114514632D01*
X105879254Y-114514631D01*
X105879252Y-114514631D01*
X105700004Y-114494435D01*
X105699996Y-114494435D01*
X105520750Y-114514630D01*
X105520737Y-114514633D01*
X105343906Y-114576510D01*
X105343155Y-114574364D01*
X105284856Y-114583962D01*
X105256409Y-114575609D01*
X105256094Y-114576510D01*
X105079262Y-114514633D01*
X105079249Y-114514630D01*
X104900004Y-114494435D01*
X104899996Y-114494435D01*
X104720750Y-114514630D01*
X104720737Y-114514633D01*
X104543906Y-114576510D01*
X104543155Y-114574364D01*
X104484855Y-114583964D01*
X104456401Y-114575609D01*
X104456086Y-114576511D01*
X104279245Y-114514631D01*
X104279240Y-114514630D01*
X104099995Y-114494435D01*
X104099987Y-114494435D01*
X103920741Y-114514630D01*
X103920728Y-114514633D01*
X103743897Y-114576510D01*
X103743148Y-114574369D01*
X103684812Y-114583958D01*
X103656396Y-114575611D01*
X103656082Y-114576510D01*
X103479250Y-114514633D01*
X103479237Y-114514630D01*
X103299992Y-114494435D01*
X103299984Y-114494435D01*
X103120738Y-114514630D01*
X103120733Y-114514631D01*
X102950464Y-114574211D01*
X102797725Y-114670184D01*
X102670172Y-114797737D01*
X102574199Y-114950476D01*
X102514619Y-115120745D01*
X102514618Y-115120750D01*
X102494423Y-115299996D01*
X100200500Y-115299996D01*
X100200500Y-109399996D01*
X100594435Y-109399996D01*
X100594435Y-109400003D01*
X100614630Y-109579249D01*
X100614631Y-109579254D01*
X100674211Y-109749523D01*
X100744585Y-109861521D01*
X100770184Y-109902262D01*
X100897738Y-110029816D01*
X100988080Y-110086582D01*
X101048254Y-110124392D01*
X101050478Y-110125789D01*
X101218347Y-110184529D01*
X101220745Y-110185368D01*
X101220750Y-110185369D01*
X101399996Y-110205565D01*
X101400000Y-110205565D01*
X101400004Y-110205565D01*
X101579249Y-110185369D01*
X101579251Y-110185368D01*
X101579255Y-110185368D01*
X101579258Y-110185366D01*
X101579262Y-110185366D01*
X101756095Y-110123489D01*
X101756846Y-110125637D01*
X101815128Y-110116035D01*
X101843588Y-110124392D01*
X101843905Y-110123489D01*
X102020737Y-110185366D01*
X102020743Y-110185367D01*
X102020745Y-110185368D01*
X102020746Y-110185368D01*
X102020750Y-110185369D01*
X102095810Y-110193825D01*
X102154802Y-110200472D01*
X102219216Y-110227538D01*
X102245912Y-110257720D01*
X102280180Y-110312257D01*
X102280184Y-110312262D01*
X102280186Y-110312264D01*
X102407740Y-110439818D01*
X102560480Y-110535791D01*
X102662470Y-110571478D01*
X102719245Y-110612200D01*
X102738554Y-110647562D01*
X102755396Y-110695690D01*
X102758957Y-110765469D01*
X102724228Y-110826096D01*
X102679309Y-110853686D01*
X102512705Y-110911983D01*
X102359965Y-111007956D01*
X102232412Y-111135509D01*
X102159185Y-111252050D01*
X102106850Y-111298341D01*
X102068076Y-111309298D01*
X102020750Y-111314630D01*
X101843905Y-111376511D01*
X101843153Y-111374364D01*
X101784856Y-111383962D01*
X101756409Y-111375609D01*
X101756094Y-111376510D01*
X101579262Y-111314633D01*
X101579249Y-111314630D01*
X101400004Y-111294435D01*
X101399996Y-111294435D01*
X101220750Y-111314630D01*
X101220745Y-111314631D01*
X101050476Y-111374211D01*
X100897737Y-111470184D01*
X100770184Y-111597737D01*
X100674211Y-111750476D01*
X100614631Y-111920745D01*
X100614630Y-111920750D01*
X100594435Y-112099996D01*
X100594435Y-112100003D01*
X100614630Y-112279249D01*
X100614631Y-112279254D01*
X100674211Y-112449523D01*
X100696956Y-112485721D01*
X100770184Y-112602262D01*
X100897738Y-112729816D01*
X100988080Y-112786582D01*
X101048254Y-112824392D01*
X101050478Y-112825789D01*
X101220739Y-112885366D01*
X101220745Y-112885368D01*
X101220750Y-112885369D01*
X101399996Y-112905565D01*
X101400000Y-112905565D01*
X101400004Y-112905565D01*
X101579249Y-112885369D01*
X101579251Y-112885368D01*
X101579255Y-112885368D01*
X101579258Y-112885366D01*
X101579262Y-112885366D01*
X101756095Y-112823489D01*
X101756846Y-112825637D01*
X101815128Y-112816035D01*
X101843588Y-112824392D01*
X101843905Y-112823489D01*
X102020737Y-112885366D01*
X102020743Y-112885367D01*
X102020745Y-112885368D01*
X102020746Y-112885368D01*
X102020750Y-112885369D01*
X102199996Y-112905565D01*
X102200000Y-112905565D01*
X102200004Y-112905565D01*
X102379249Y-112885369D01*
X102379252Y-112885368D01*
X102379255Y-112885368D01*
X102549522Y-112825789D01*
X102702262Y-112729816D01*
X102829816Y-112602262D01*
X102903044Y-112485719D01*
X102955377Y-112439429D01*
X102994151Y-112428472D01*
X103041483Y-112423140D01*
X103211750Y-112363561D01*
X103364490Y-112267588D01*
X103492044Y-112140034D01*
X103574745Y-112008416D01*
X103627077Y-111962127D01*
X103665853Y-111951170D01*
X103685780Y-111948925D01*
X103856047Y-111889346D01*
X104008787Y-111793373D01*
X104136341Y-111665819D01*
X104232314Y-111513079D01*
X104291893Y-111342812D01*
X104295068Y-111314632D01*
X104312090Y-111163560D01*
X104312090Y-111163553D01*
X104291894Y-110984307D01*
X104291891Y-110984294D01*
X104236534Y-110826096D01*
X104232314Y-110814035D01*
X104229129Y-110808966D01*
X104210127Y-110741733D01*
X104217078Y-110702043D01*
X104272717Y-110543039D01*
X104284347Y-110439818D01*
X104292914Y-110363787D01*
X104292914Y-110363780D01*
X104272718Y-110184534D01*
X104272717Y-110184529D01*
X104241064Y-110094071D01*
X104213138Y-110014262D01*
X104117165Y-109861522D01*
X103989611Y-109733968D01*
X103836871Y-109637995D01*
X103836872Y-109637995D01*
X103836870Y-109637994D01*
X103758096Y-109610430D01*
X103734880Y-109602306D01*
X103678105Y-109561586D01*
X103658794Y-109526220D01*
X103635791Y-109460479D01*
X103539817Y-109307739D01*
X103412264Y-109180186D01*
X103259525Y-109084213D01*
X103089256Y-109024633D01*
X103089252Y-109024632D01*
X102955197Y-109009528D01*
X102890783Y-108982461D01*
X102864087Y-108952280D01*
X102829815Y-108897737D01*
X102702262Y-108770184D01*
X102549523Y-108674211D01*
X102379254Y-108614631D01*
X102379249Y-108614630D01*
X102200004Y-108594435D01*
X102199996Y-108594435D01*
X102020750Y-108614630D01*
X102020737Y-108614633D01*
X101843906Y-108676510D01*
X101843155Y-108674364D01*
X101784856Y-108683962D01*
X101756409Y-108675609D01*
X101756094Y-108676510D01*
X101579262Y-108614633D01*
X101579249Y-108614630D01*
X101400004Y-108594435D01*
X101399996Y-108594435D01*
X101220750Y-108614630D01*
X101220745Y-108614631D01*
X101050476Y-108674211D01*
X100897737Y-108770184D01*
X100770184Y-108897737D01*
X100674211Y-109050476D01*
X100614631Y-109220745D01*
X100614630Y-109220750D01*
X100594435Y-109399996D01*
X100200500Y-109399996D01*
X100200500Y-107399996D01*
X109094435Y-107399996D01*
X109094435Y-107400003D01*
X109114630Y-107579249D01*
X109114631Y-107579254D01*
X109174211Y-107749523D01*
X109270184Y-107902262D01*
X109397738Y-108029816D01*
X109550478Y-108125789D01*
X109720745Y-108185368D01*
X109720750Y-108185369D01*
X109899996Y-108205565D01*
X109900000Y-108205565D01*
X109900004Y-108205565D01*
X110079249Y-108185369D01*
X110079252Y-108185368D01*
X110079255Y-108185368D01*
X110249522Y-108125789D01*
X110402262Y-108029816D01*
X110529816Y-107902262D01*
X110625789Y-107749522D01*
X110685368Y-107579255D01*
X110705565Y-107400000D01*
X110685368Y-107220745D01*
X110625789Y-107050478D01*
X110529816Y-106897738D01*
X110402262Y-106770184D01*
X110249523Y-106674211D01*
X110079254Y-106614631D01*
X110079249Y-106614630D01*
X109900004Y-106594435D01*
X109899996Y-106594435D01*
X109720750Y-106614630D01*
X109720745Y-106614631D01*
X109550476Y-106674211D01*
X109397737Y-106770184D01*
X109270184Y-106897737D01*
X109174211Y-107050476D01*
X109114631Y-107220745D01*
X109114630Y-107220750D01*
X109094435Y-107399996D01*
X100200500Y-107399996D01*
X100200500Y-106199996D01*
X102794435Y-106199996D01*
X102794435Y-106200003D01*
X102814630Y-106379249D01*
X102814631Y-106379254D01*
X102874211Y-106549523D01*
X102915122Y-106614632D01*
X102970184Y-106702262D01*
X103097738Y-106829816D01*
X103188080Y-106886582D01*
X103248254Y-106924392D01*
X103250478Y-106925789D01*
X103420739Y-106985366D01*
X103420745Y-106985368D01*
X103420750Y-106985369D01*
X103599996Y-107005565D01*
X103600000Y-107005565D01*
X103600004Y-107005565D01*
X103779249Y-106985369D01*
X103779251Y-106985368D01*
X103779255Y-106985368D01*
X103779258Y-106985366D01*
X103779262Y-106985366D01*
X103956095Y-106923489D01*
X103956846Y-106925637D01*
X104015128Y-106916035D01*
X104043588Y-106924392D01*
X104043905Y-106923489D01*
X104220737Y-106985366D01*
X104220743Y-106985367D01*
X104220745Y-106985368D01*
X104220746Y-106985368D01*
X104220750Y-106985369D01*
X104399996Y-107005565D01*
X104400000Y-107005565D01*
X104400004Y-107005565D01*
X104579249Y-106985369D01*
X104579251Y-106985368D01*
X104579255Y-106985368D01*
X104579258Y-106985366D01*
X104579262Y-106985366D01*
X104756095Y-106923489D01*
X104756846Y-106925637D01*
X104815128Y-106916035D01*
X104843588Y-106924392D01*
X104843905Y-106923489D01*
X105020737Y-106985366D01*
X105020743Y-106985367D01*
X105020745Y-106985368D01*
X105020746Y-106985368D01*
X105020750Y-106985369D01*
X105199996Y-107005565D01*
X105200000Y-107005565D01*
X105200004Y-107005565D01*
X105379249Y-106985369D01*
X105379251Y-106985368D01*
X105379255Y-106985368D01*
X105379258Y-106985366D01*
X105379262Y-106985366D01*
X105556095Y-106923489D01*
X105556846Y-106925637D01*
X105615128Y-106916035D01*
X105643588Y-106924392D01*
X105643905Y-106923489D01*
X105820737Y-106985366D01*
X105820743Y-106985367D01*
X105820745Y-106985368D01*
X105820746Y-106985368D01*
X105820750Y-106985369D01*
X105999996Y-107005565D01*
X106000000Y-107005565D01*
X106000004Y-107005565D01*
X106179249Y-106985369D01*
X106179252Y-106985368D01*
X106179255Y-106985368D01*
X106349522Y-106925789D01*
X106502262Y-106829816D01*
X106629816Y-106702262D01*
X106725789Y-106549522D01*
X106785368Y-106379255D01*
X106805565Y-106200000D01*
X106785368Y-106020745D01*
X106725789Y-105850478D01*
X106629816Y-105697738D01*
X106502262Y-105570184D01*
X106469379Y-105549522D01*
X106349523Y-105474211D01*
X106179254Y-105414631D01*
X106179249Y-105414630D01*
X106000004Y-105394435D01*
X105999996Y-105394435D01*
X105820750Y-105414630D01*
X105820737Y-105414633D01*
X105643906Y-105476510D01*
X105643155Y-105474364D01*
X105584856Y-105483962D01*
X105556409Y-105475609D01*
X105556094Y-105476510D01*
X105379262Y-105414633D01*
X105379249Y-105414630D01*
X105200004Y-105394435D01*
X105199996Y-105394435D01*
X105020750Y-105414630D01*
X105020737Y-105414633D01*
X104843906Y-105476510D01*
X104843155Y-105474364D01*
X104784856Y-105483962D01*
X104756409Y-105475609D01*
X104756094Y-105476510D01*
X104579262Y-105414633D01*
X104579249Y-105414630D01*
X104400004Y-105394435D01*
X104399996Y-105394435D01*
X104220750Y-105414630D01*
X104220737Y-105414633D01*
X104043906Y-105476510D01*
X104043155Y-105474364D01*
X103984856Y-105483962D01*
X103956409Y-105475609D01*
X103956094Y-105476510D01*
X103779262Y-105414633D01*
X103779249Y-105414630D01*
X103600004Y-105394435D01*
X103599996Y-105394435D01*
X103420750Y-105414630D01*
X103420745Y-105414631D01*
X103250476Y-105474211D01*
X103097737Y-105570184D01*
X102970184Y-105697737D01*
X102874211Y-105850476D01*
X102814631Y-106020745D01*
X102814630Y-106020750D01*
X102794435Y-106199996D01*
X100200500Y-106199996D01*
X100200500Y-105199996D01*
X117094435Y-105199996D01*
X117094435Y-105200003D01*
X117114630Y-105379249D01*
X117114631Y-105379254D01*
X117174211Y-105549523D01*
X117267341Y-105697737D01*
X117270184Y-105702262D01*
X117397738Y-105829816D01*
X117550478Y-105925789D01*
X117720745Y-105985368D01*
X117720750Y-105985369D01*
X117899996Y-106005565D01*
X117900000Y-106005565D01*
X117900004Y-106005565D01*
X118079249Y-105985369D01*
X118079252Y-105985368D01*
X118079255Y-105985368D01*
X118249522Y-105925789D01*
X118402262Y-105829816D01*
X118529816Y-105702262D01*
X118625789Y-105549522D01*
X118685368Y-105379255D01*
X118705565Y-105200000D01*
X118685368Y-105020745D01*
X118625789Y-104850478D01*
X118529816Y-104697738D01*
X118402262Y-104570184D01*
X118249523Y-104474211D01*
X118079254Y-104414631D01*
X118079249Y-104414630D01*
X117900004Y-104394435D01*
X117899996Y-104394435D01*
X117720750Y-104414630D01*
X117720745Y-104414631D01*
X117550476Y-104474211D01*
X117397737Y-104570184D01*
X117270184Y-104697737D01*
X117174211Y-104850476D01*
X117114631Y-105020745D01*
X117114630Y-105020750D01*
X117094435Y-105199996D01*
X100200500Y-105199996D01*
X100200500Y-100324500D01*
X100220185Y-100257461D01*
X100272989Y-100211706D01*
X100324500Y-100200500D01*
X119951928Y-100200500D01*
X120018967Y-100220185D01*
G37*
%TD.AperFunction*%
%TD*%
M02*
