M48
; DRILL file {KiCad 8.0.8} date 2025-09-03T22:29:32+0800
; FORMAT={-:-/ absolute / inch / decimal}
; #@! TF.CreationDate,2025-09-03T22:29:32+08:00
; #@! TF.GenerationSoftware,Kicad,Pcbnew,8.0.8
; #@! TF.FileFunction,Plated,1,4,PTH
FMAT,2
INCH
; #@! TA.AperFunction,Plated,PTH,ViaDrill
T1C0.0118
; #@! TA.AperFunction,Plated,PTH,ComponentDrill
T2C0.0256
%
G90
G05
T1
X3.9921Y-4.3071
X3.9921Y-4.4134
X4.0236Y-4.3071
X4.0236Y-4.4134
X4.0315Y-4.5394
X4.0433Y-4.1811
X4.0497Y-4.3952
X4.0516Y-4.3232
X4.0669Y-4.5394
X4.0743Y-4.345
X4.0751Y-4.3765
X4.0787Y-4.1811
X4.0984Y-4.5394
X4.1102Y-4.1811
X4.1299Y-4.5394
X4.1417Y-4.1811
X4.1476Y-4.6535
X4.1614Y-4.063
X4.1614Y-4.5394
X4.1732Y-4.1811
X4.1929Y-4.5354
X4.2126Y-4.7165
X4.2165Y-4.6417
X4.3189Y-4.6811
X4.3268Y-4.2283
X4.3386Y-4.2756
X4.3465Y-4.063
X4.3504Y-4.4764
X4.3504Y-4.5276
X4.3504Y-4.7559
X4.3898Y-4.4764
X4.3937Y-4.5472
X4.4173Y-4.6772
X4.5118Y-4.7165
X4.5197Y-4.6417
X4.5276Y-4.0472
X4.5276Y-4.4685
X4.5433Y-4.2992
X4.6417Y-4.1417
X4.6496Y-4.0472
X4.7165Y-4.6535
X4.7205Y-4.4685
X4.7323Y-4.2874
X4.7559Y-3.9646
X4.7758Y-4.0785
T2
G00X4.2785Y-4.5945
M15
G01X4.2687Y-4.5945
M16
G05
G00X4.2785Y-4.7638
M15
G01X4.2687Y-4.7638
M16
G05
G00X4.4675Y-4.5945
M15
G01X4.4577Y-4.5945
M16
G05
G00X4.4675Y-4.7638
M15
G01X4.4577Y-4.7638
M16
G05
M30
