%TF.GenerationSoftware,KiCad,Pcbnew,8.0.8*%
%TF.CreationDate,2025-09-03T22:29:27+08:00*%
%TF.ProjectId,FrekLedMini,4672656b-4c65-4644-9d69-6e692e6b6963,rev?*%
%TF.SameCoordinates,Original*%
%TF.FileFunction,Copper,L3,Inr*%
%TF.FilePolarity,Positive*%
%FSLAX46Y46*%
G04 Gerber Fmt 4.6, Leading zero omitted, Abs format (unit mm)*
G04 Created by KiCad (PCBNEW 8.0.8) date 2025-09-03 22:29:27*
%MOMM*%
%LPD*%
G01*
G04 APERTURE LIST*
%TA.AperFunction,ComponentPad*%
%ADD10O,1.400000X1.150000*%
%TD*%
%TA.AperFunction,ViaPad*%
%ADD11C,0.600000*%
%TD*%
G04 APERTURE END LIST*
D10*
%TO.N,GND*%
%TO.C,J1*%
X113350000Y-121000000D03*
X108550000Y-121000000D03*
X113350000Y-116700000D03*
X108550000Y-116700000D03*
%TD*%
D11*
%TO.N,GND*%
X110500000Y-120800000D03*
X111600000Y-115500000D03*
%TO.N,+5V*%
X110500000Y-113700000D03*
X111500000Y-113700000D03*
X112200000Y-118800000D03*
X105350000Y-118200000D03*
X102700000Y-106200000D03*
X110400000Y-103200000D03*
X119900000Y-113500000D03*
X110200000Y-108600000D03*
X115000000Y-113500000D03*
X115000000Y-102800000D03*
X120200000Y-108900000D03*
X109700000Y-118900000D03*
X118100000Y-102800000D03*
X105700000Y-103200000D03*
X102400000Y-115300000D03*
X115400000Y-109200000D03*
X119800000Y-118200000D03*
X121305514Y-103594486D03*
%TO.N,GND*%
X106500000Y-115200000D03*
X114600000Y-119800000D03*
X107000000Y-119800000D03*
X114800000Y-117900000D03*
X117900000Y-105200000D03*
X120800000Y-100700000D03*
X110500000Y-115000000D03*
X109900000Y-107400000D03*
X107100000Y-117900000D03*
%TO.N,/LED1*%
X106000000Y-106200000D03*
%TO.N,/LED2*%
X105200000Y-106200000D03*
%TO.N,/LED3*%
X104400000Y-106200000D03*
%TO.N,/LED4*%
X103600000Y-106200000D03*
%TO.N,/LED5*%
X103487349Y-110363784D03*
%TO.N,/LED6*%
X102910002Y-109810002D03*
%TO.N,/LED7*%
X102200000Y-109400000D03*
%TO.N,/LED8*%
X101400000Y-109400000D03*
%TO.N,/LED9*%
X101400000Y-112100000D03*
%TO.N,/LED10*%
X102200000Y-112100000D03*
%TO.N,/LED11*%
X102862228Y-111637772D03*
%TO.N,/LED12*%
X103506525Y-111163557D03*
%TO.N,/LED13*%
X103299988Y-115300000D03*
%TO.N,/LED14*%
X104099991Y-115300000D03*
%TO.N,/LED15*%
X104900000Y-115300000D03*
%TO.N,/LED16*%
X105700000Y-115300000D03*
%TD*%
%TA.AperFunction,Conductor*%
%TO.N,GND*%
G36*
X121742539Y-100220185D02*
G01*
X121788294Y-100272989D01*
X121799500Y-100324500D01*
X121799500Y-102744485D01*
X121779815Y-102811524D01*
X121727011Y-102857279D01*
X121657853Y-102867223D01*
X121634545Y-102861527D01*
X121484768Y-102809117D01*
X121484763Y-102809116D01*
X121305518Y-102788921D01*
X121305510Y-102788921D01*
X121126264Y-102809116D01*
X121126259Y-102809117D01*
X120955990Y-102868697D01*
X120803251Y-102964670D01*
X120675698Y-103092223D01*
X120579725Y-103244962D01*
X120520145Y-103415231D01*
X120520144Y-103415236D01*
X120499949Y-103594482D01*
X120499949Y-103594489D01*
X120520144Y-103773735D01*
X120520145Y-103773740D01*
X120579725Y-103944009D01*
X120675698Y-104096748D01*
X120803252Y-104224302D01*
X120955992Y-104320275D01*
X120976483Y-104327445D01*
X121126259Y-104379854D01*
X121126264Y-104379855D01*
X121305510Y-104400051D01*
X121305514Y-104400051D01*
X121305518Y-104400051D01*
X121484763Y-104379855D01*
X121484766Y-104379854D01*
X121484769Y-104379854D01*
X121634545Y-104327444D01*
X121704324Y-104323884D01*
X121764952Y-104358613D01*
X121797179Y-104420606D01*
X121799500Y-104444487D01*
X121799500Y-121675500D01*
X121779815Y-121742539D01*
X121727011Y-121788294D01*
X121675500Y-121799500D01*
X114466266Y-121799500D01*
X114399227Y-121779815D01*
X114353472Y-121727011D01*
X114343528Y-121657853D01*
X114365948Y-121602615D01*
X114394419Y-121563426D01*
X114471239Y-121412659D01*
X114523530Y-121251726D01*
X114523804Y-121250000D01*
X113684618Y-121250000D01*
X113735064Y-121199554D01*
X113777851Y-121125445D01*
X113800000Y-121042787D01*
X113800000Y-120957213D01*
X113777851Y-120874555D01*
X113735064Y-120800446D01*
X113684618Y-120750000D01*
X114523804Y-120750000D01*
X114523530Y-120748273D01*
X114471239Y-120587340D01*
X114394421Y-120436576D01*
X114294961Y-120299683D01*
X114294961Y-120299682D01*
X114175317Y-120180038D01*
X114038423Y-120080578D01*
X113887659Y-120003760D01*
X113726726Y-119951469D01*
X113600000Y-119931397D01*
X113600000Y-120697029D01*
X113517787Y-120675000D01*
X113182213Y-120675000D01*
X113100000Y-120697029D01*
X113100000Y-119931397D01*
X112973273Y-119951469D01*
X112812340Y-120003760D01*
X112661576Y-120080578D01*
X112524683Y-120180038D01*
X112524682Y-120180038D01*
X112405038Y-120299682D01*
X112405038Y-120299683D01*
X112305578Y-120436576D01*
X112228760Y-120587340D01*
X112176469Y-120748273D01*
X112176196Y-120750000D01*
X113015382Y-120750000D01*
X112964936Y-120800446D01*
X112922149Y-120874555D01*
X112900000Y-120957213D01*
X112900000Y-121042787D01*
X112922149Y-121125445D01*
X112964936Y-121199554D01*
X113015382Y-121250000D01*
X112176196Y-121250000D01*
X112176469Y-121251726D01*
X112228760Y-121412659D01*
X112305580Y-121563426D01*
X112334052Y-121602615D01*
X112357532Y-121668421D01*
X112341707Y-121736475D01*
X112291601Y-121785170D01*
X112233734Y-121799500D01*
X109666266Y-121799500D01*
X109599227Y-121779815D01*
X109553472Y-121727011D01*
X109543528Y-121657853D01*
X109565948Y-121602615D01*
X109594419Y-121563426D01*
X109671239Y-121412659D01*
X109723530Y-121251726D01*
X109723804Y-121250000D01*
X108884618Y-121250000D01*
X108935064Y-121199554D01*
X108977851Y-121125445D01*
X109000000Y-121042787D01*
X109000000Y-120957213D01*
X108977851Y-120874555D01*
X108935064Y-120800446D01*
X108884618Y-120750000D01*
X109723804Y-120750000D01*
X109723530Y-120748273D01*
X109671239Y-120587340D01*
X109594421Y-120436576D01*
X109494961Y-120299683D01*
X109494961Y-120299682D01*
X109375317Y-120180038D01*
X109238423Y-120080578D01*
X109087659Y-120003760D01*
X108926726Y-119951469D01*
X108800000Y-119931397D01*
X108800000Y-120697029D01*
X108717787Y-120675000D01*
X108382213Y-120675000D01*
X108300000Y-120697029D01*
X108300000Y-119931397D01*
X108173273Y-119951469D01*
X108012340Y-120003760D01*
X107861576Y-120080578D01*
X107724683Y-120180038D01*
X107724682Y-120180038D01*
X107605038Y-120299682D01*
X107605038Y-120299683D01*
X107505578Y-120436576D01*
X107428760Y-120587340D01*
X107376469Y-120748273D01*
X107376196Y-120750000D01*
X108215382Y-120750000D01*
X108164936Y-120800446D01*
X108122149Y-120874555D01*
X108100000Y-120957213D01*
X108100000Y-121042787D01*
X108122149Y-121125445D01*
X108164936Y-121199554D01*
X108215382Y-121250000D01*
X107376196Y-121250000D01*
X107376469Y-121251726D01*
X107428760Y-121412659D01*
X107505580Y-121563426D01*
X107534052Y-121602615D01*
X107557532Y-121668421D01*
X107541707Y-121736475D01*
X107491601Y-121785170D01*
X107433734Y-121799500D01*
X100324500Y-121799500D01*
X100257461Y-121779815D01*
X100211706Y-121727011D01*
X100200500Y-121675500D01*
X100200500Y-118199996D01*
X104544435Y-118199996D01*
X104544435Y-118200003D01*
X104564630Y-118379249D01*
X104564631Y-118379254D01*
X104624211Y-118549523D01*
X104695265Y-118662604D01*
X104720184Y-118702262D01*
X104847738Y-118829816D01*
X104879861Y-118850000D01*
X104981580Y-118913915D01*
X105000478Y-118925789D01*
X105025373Y-118934500D01*
X105170745Y-118985368D01*
X105170750Y-118985369D01*
X105349996Y-119005565D01*
X105350000Y-119005565D01*
X105350004Y-119005565D01*
X105529249Y-118985369D01*
X105529252Y-118985368D01*
X105529255Y-118985368D01*
X105699522Y-118925789D01*
X105852262Y-118829816D01*
X105895995Y-118786083D01*
X106614500Y-118786083D01*
X106614500Y-118810118D01*
X106614500Y-118850000D01*
X106614500Y-118913917D01*
X106647586Y-119037396D01*
X106711504Y-119148104D01*
X106801896Y-119238496D01*
X106912604Y-119302414D01*
X107036083Y-119335500D01*
X107036085Y-119335500D01*
X107363915Y-119335500D01*
X107363917Y-119335500D01*
X107487396Y-119302414D01*
X107598104Y-119238496D01*
X107688496Y-119148104D01*
X107752414Y-119037396D01*
X107785500Y-118913917D01*
X107785500Y-118899996D01*
X108894435Y-118899996D01*
X108894435Y-118900003D01*
X108914630Y-119079249D01*
X108914631Y-119079254D01*
X108974211Y-119249523D01*
X109033338Y-119343622D01*
X109070184Y-119402262D01*
X109197738Y-119529816D01*
X109350478Y-119625789D01*
X109520745Y-119685368D01*
X109520750Y-119685369D01*
X109699996Y-119705565D01*
X109700000Y-119705565D01*
X109700004Y-119705565D01*
X109879249Y-119685369D01*
X109879252Y-119685368D01*
X109879255Y-119685368D01*
X110049522Y-119625789D01*
X110202262Y-119529816D01*
X110329816Y-119402262D01*
X110425789Y-119249522D01*
X110485368Y-119079255D01*
X110485369Y-119079249D01*
X110505565Y-118900003D01*
X110505565Y-118899996D01*
X110494298Y-118799996D01*
X111394435Y-118799996D01*
X111394435Y-118800003D01*
X111414630Y-118979249D01*
X111414631Y-118979254D01*
X111474211Y-119149523D01*
X111540555Y-119255108D01*
X111570184Y-119302262D01*
X111697738Y-119429816D01*
X111850478Y-119525789D01*
X111861984Y-119529815D01*
X112020745Y-119585368D01*
X112020750Y-119585369D01*
X112199996Y-119605565D01*
X112200000Y-119605565D01*
X112200004Y-119605565D01*
X112379249Y-119585369D01*
X112379252Y-119585368D01*
X112379255Y-119585368D01*
X112549522Y-119525789D01*
X112702262Y-119429816D01*
X112829816Y-119302262D01*
X112925789Y-119149522D01*
X112985368Y-118979255D01*
X112991392Y-118925789D01*
X113005565Y-118800003D01*
X113005565Y-118799996D01*
X113004146Y-118787404D01*
X114064500Y-118787404D01*
X114064500Y-118912595D01*
X114088920Y-119035361D01*
X114088923Y-119035373D01*
X114136823Y-119151015D01*
X114136830Y-119151028D01*
X114206374Y-119255107D01*
X114206377Y-119255111D01*
X114294888Y-119343622D01*
X114294892Y-119343625D01*
X114398971Y-119413169D01*
X114398984Y-119413176D01*
X114514626Y-119461076D01*
X114514631Y-119461078D01*
X114637404Y-119485499D01*
X114637408Y-119485500D01*
X114637409Y-119485500D01*
X114762592Y-119485500D01*
X114762593Y-119485499D01*
X114885369Y-119461078D01*
X115001022Y-119413173D01*
X115105108Y-119343625D01*
X115193625Y-119255108D01*
X115263173Y-119151022D01*
X115311078Y-119035369D01*
X115335500Y-118912591D01*
X115335500Y-118787409D01*
X115311078Y-118664631D01*
X115264382Y-118551896D01*
X115263176Y-118548984D01*
X115263169Y-118548971D01*
X115193625Y-118444892D01*
X115193622Y-118444888D01*
X115105111Y-118356377D01*
X115105107Y-118356374D01*
X115001028Y-118286830D01*
X115001015Y-118286823D01*
X114885373Y-118238923D01*
X114885361Y-118238920D01*
X114762595Y-118214500D01*
X114762591Y-118214500D01*
X114637409Y-118214500D01*
X114637404Y-118214500D01*
X114514638Y-118238920D01*
X114514626Y-118238923D01*
X114398984Y-118286823D01*
X114398971Y-118286830D01*
X114294892Y-118356374D01*
X114294888Y-118356377D01*
X114206377Y-118444888D01*
X114206374Y-118444892D01*
X114136830Y-118548971D01*
X114136823Y-118548984D01*
X114088923Y-118664626D01*
X114088920Y-118664638D01*
X114064500Y-118787404D01*
X113004146Y-118787404D01*
X112985369Y-118620750D01*
X112985368Y-118620745D01*
X112961276Y-118551893D01*
X112925789Y-118450478D01*
X112829816Y-118297738D01*
X112732074Y-118199996D01*
X118994435Y-118199996D01*
X118994435Y-118200003D01*
X119014630Y-118379249D01*
X119014631Y-118379254D01*
X119074211Y-118549523D01*
X119145265Y-118662604D01*
X119170184Y-118702262D01*
X119297738Y-118829816D01*
X119329861Y-118850000D01*
X119431580Y-118913915D01*
X119450478Y-118925789D01*
X119475373Y-118934500D01*
X119620745Y-118985368D01*
X119620750Y-118985369D01*
X119799996Y-119005565D01*
X119800000Y-119005565D01*
X119800004Y-119005565D01*
X119979249Y-118985369D01*
X119979252Y-118985368D01*
X119979255Y-118985368D01*
X120149522Y-118925789D01*
X120302262Y-118829816D01*
X120429816Y-118702262D01*
X120525789Y-118549522D01*
X120585368Y-118379255D01*
X120585369Y-118379249D01*
X120605565Y-118200003D01*
X120605565Y-118199996D01*
X120585369Y-118020750D01*
X120585368Y-118020745D01*
X120525788Y-117850476D01*
X120461731Y-117748530D01*
X120429816Y-117697738D01*
X120302262Y-117570184D01*
X120222333Y-117519961D01*
X120149523Y-117474211D01*
X119979254Y-117414631D01*
X119979249Y-117414630D01*
X119800004Y-117394435D01*
X119799996Y-117394435D01*
X119620750Y-117414630D01*
X119620745Y-117414631D01*
X119450476Y-117474211D01*
X119297737Y-117570184D01*
X119170184Y-117697737D01*
X119074211Y-117850476D01*
X119014631Y-118020745D01*
X119014630Y-118020750D01*
X118994435Y-118199996D01*
X112732074Y-118199996D01*
X112702262Y-118170184D01*
X112613852Y-118114632D01*
X112549523Y-118074211D01*
X112379254Y-118014631D01*
X112379249Y-118014630D01*
X112200004Y-117994435D01*
X112199996Y-117994435D01*
X112020750Y-118014630D01*
X112020745Y-118014631D01*
X111850476Y-118074211D01*
X111697737Y-118170184D01*
X111570184Y-118297737D01*
X111474211Y-118450476D01*
X111414631Y-118620745D01*
X111414630Y-118620750D01*
X111394435Y-118799996D01*
X110494298Y-118799996D01*
X110485369Y-118720750D01*
X110485368Y-118720745D01*
X110425789Y-118550478D01*
X110425188Y-118549522D01*
X110362955Y-118450478D01*
X110329816Y-118397738D01*
X110202262Y-118270184D01*
X110049523Y-118174211D01*
X109879254Y-118114631D01*
X109879249Y-118114630D01*
X109700004Y-118094435D01*
X109699996Y-118094435D01*
X109520750Y-118114630D01*
X109520745Y-118114631D01*
X109350476Y-118174211D01*
X109197737Y-118270184D01*
X109070184Y-118397737D01*
X108974211Y-118550476D01*
X108914631Y-118720745D01*
X108914630Y-118720750D01*
X108894435Y-118899996D01*
X107785500Y-118899996D01*
X107785500Y-118850000D01*
X107785500Y-118810118D01*
X107785500Y-118786083D01*
X107752414Y-118662604D01*
X107688496Y-118551896D01*
X107598104Y-118461504D01*
X107487396Y-118397586D01*
X107363917Y-118364500D01*
X107339882Y-118364500D01*
X107139882Y-118364500D01*
X107100000Y-118364500D01*
X107036083Y-118364500D01*
X106912603Y-118397586D01*
X106801896Y-118461504D01*
X106801893Y-118461506D01*
X106711506Y-118551893D01*
X106711504Y-118551896D01*
X106647586Y-118662603D01*
X106647586Y-118662604D01*
X106614500Y-118786083D01*
X105895995Y-118786083D01*
X105979816Y-118702262D01*
X106075789Y-118549522D01*
X106135368Y-118379255D01*
X106135369Y-118379249D01*
X106155565Y-118200003D01*
X106155565Y-118199996D01*
X106135369Y-118020750D01*
X106135368Y-118020745D01*
X106075788Y-117850476D01*
X106011731Y-117748530D01*
X105979816Y-117697738D01*
X105852262Y-117570184D01*
X105772333Y-117519961D01*
X105699523Y-117474211D01*
X105529254Y-117414631D01*
X105529249Y-117414630D01*
X105350004Y-117394435D01*
X105349996Y-117394435D01*
X105170750Y-117414630D01*
X105170745Y-117414631D01*
X105000476Y-117474211D01*
X104847737Y-117570184D01*
X104720184Y-117697737D01*
X104624211Y-117850476D01*
X104564631Y-118020745D01*
X104564630Y-118020750D01*
X104544435Y-118199996D01*
X100200500Y-118199996D01*
X100200500Y-116450000D01*
X107376196Y-116450000D01*
X108215382Y-116450000D01*
X108164936Y-116500446D01*
X108122149Y-116574555D01*
X108100000Y-116657213D01*
X108100000Y-116742787D01*
X108122149Y-116825445D01*
X108164936Y-116899554D01*
X108215382Y-116950000D01*
X107376196Y-116950000D01*
X107376469Y-116951726D01*
X107428760Y-117112659D01*
X107505578Y-117263423D01*
X107605038Y-117400316D01*
X107605038Y-117400317D01*
X107724682Y-117519961D01*
X107861576Y-117619421D01*
X108012338Y-117696239D01*
X108173265Y-117748528D01*
X108173273Y-117748530D01*
X108299999Y-117768601D01*
X108300000Y-117768601D01*
X108300000Y-117002970D01*
X108382213Y-117025000D01*
X108717787Y-117025000D01*
X108800000Y-117002970D01*
X108800000Y-117768601D01*
X108926726Y-117748530D01*
X108926734Y-117748528D01*
X109087661Y-117696239D01*
X109238423Y-117619421D01*
X109375316Y-117519961D01*
X109375317Y-117519961D01*
X109494961Y-117400317D01*
X109494961Y-117400316D01*
X109594421Y-117263423D01*
X109671239Y-117112659D01*
X109723530Y-116951726D01*
X109723804Y-116950000D01*
X108884618Y-116950000D01*
X108935064Y-116899554D01*
X108977851Y-116825445D01*
X109000000Y-116742787D01*
X109000000Y-116657213D01*
X108977851Y-116574555D01*
X108935064Y-116500446D01*
X108884618Y-116450000D01*
X109723804Y-116450000D01*
X112176196Y-116450000D01*
X113015382Y-116450000D01*
X112964936Y-116500446D01*
X112922149Y-116574555D01*
X112900000Y-116657213D01*
X112900000Y-116742787D01*
X112922149Y-116825445D01*
X112964936Y-116899554D01*
X113015382Y-116950000D01*
X112176196Y-116950000D01*
X112176469Y-116951726D01*
X112228760Y-117112659D01*
X112305578Y-117263423D01*
X112405038Y-117400316D01*
X112405038Y-117400317D01*
X112524682Y-117519961D01*
X112661576Y-117619421D01*
X112812338Y-117696239D01*
X112973265Y-117748528D01*
X112973273Y-117748530D01*
X113099999Y-117768601D01*
X113100000Y-117768601D01*
X113100000Y-117002970D01*
X113182213Y-117025000D01*
X113517787Y-117025000D01*
X113600000Y-117002970D01*
X113600000Y-117768601D01*
X113726726Y-117748530D01*
X113726734Y-117748528D01*
X113887661Y-117696239D01*
X114038423Y-117619421D01*
X114175316Y-117519961D01*
X114175317Y-117519961D01*
X114294961Y-117400317D01*
X114294961Y-117400316D01*
X114394421Y-117263423D01*
X114471239Y-117112659D01*
X114523530Y-116951726D01*
X114523804Y-116950000D01*
X113684618Y-116950000D01*
X113735064Y-116899554D01*
X113777851Y-116825445D01*
X113800000Y-116742787D01*
X113800000Y-116657213D01*
X113777851Y-116574555D01*
X113735064Y-116500446D01*
X113684618Y-116450000D01*
X114523804Y-116450000D01*
X114523530Y-116448273D01*
X114471239Y-116287340D01*
X114394421Y-116136576D01*
X114294961Y-115999683D01*
X114294961Y-115999682D01*
X114175317Y-115880038D01*
X114038423Y-115780578D01*
X113887659Y-115703760D01*
X113726726Y-115651469D01*
X113600000Y-115631397D01*
X113600000Y-116397029D01*
X113517787Y-116375000D01*
X113182213Y-116375000D01*
X113100000Y-116397029D01*
X113100000Y-115631397D01*
X112973273Y-115651469D01*
X112812340Y-115703760D01*
X112661576Y-115780578D01*
X112524683Y-115880038D01*
X112524682Y-115880038D01*
X112405038Y-115999682D01*
X112405038Y-115999683D01*
X112305578Y-116136576D01*
X112228760Y-116287340D01*
X112176469Y-116448273D01*
X112176196Y-116450000D01*
X109723804Y-116450000D01*
X109723530Y-116448273D01*
X109671239Y-116287340D01*
X109594421Y-116136576D01*
X109494961Y-115999683D01*
X109494961Y-115999682D01*
X109375317Y-115880038D01*
X109238423Y-115780578D01*
X109087659Y-115703760D01*
X108926726Y-115651469D01*
X108800000Y-115631397D01*
X108800000Y-116397029D01*
X108717787Y-116375000D01*
X108382213Y-116375000D01*
X108300000Y-116397029D01*
X108300000Y-115631397D01*
X108173273Y-115651469D01*
X108012340Y-115703760D01*
X107861576Y-115780578D01*
X107724683Y-115880038D01*
X107724682Y-115880038D01*
X107605038Y-115999682D01*
X107605038Y-115999683D01*
X107505578Y-116136576D01*
X107428760Y-116287340D01*
X107376469Y-116448273D01*
X107376196Y-116450000D01*
X100200500Y-116450000D01*
X100200500Y-115299996D01*
X101594435Y-115299996D01*
X101594435Y-115300003D01*
X101614630Y-115479249D01*
X101614631Y-115479254D01*
X101674211Y-115649523D01*
X101675434Y-115651469D01*
X101770184Y-115802262D01*
X101897738Y-115929816D01*
X101950006Y-115962658D01*
X102048254Y-116024392D01*
X102050478Y-116025789D01*
X102220739Y-116085366D01*
X102220745Y-116085368D01*
X102220750Y-116085369D01*
X102399996Y-116105565D01*
X102400000Y-116105565D01*
X102400004Y-116105565D01*
X102579249Y-116085369D01*
X102579252Y-116085368D01*
X102579255Y-116085368D01*
X102749522Y-116025789D01*
X102751746Y-116024392D01*
X102784021Y-116004112D01*
X102851258Y-115985111D01*
X102915967Y-116004112D01*
X102950463Y-116025788D01*
X103120733Y-116085368D01*
X103120738Y-116085369D01*
X103299984Y-116105565D01*
X103299988Y-116105565D01*
X103299992Y-116105565D01*
X103479237Y-116085369D01*
X103479239Y-116085368D01*
X103479243Y-116085368D01*
X103479246Y-116085366D01*
X103479250Y-116085366D01*
X103656083Y-116023489D01*
X103656834Y-116025637D01*
X103715116Y-116016035D01*
X103743580Y-116024391D01*
X103743896Y-116023489D01*
X103920736Y-116085368D01*
X103920741Y-116085369D01*
X104099987Y-116105565D01*
X104099991Y-116105565D01*
X104099995Y-116105565D01*
X104279240Y-116085369D01*
X104279242Y-116085368D01*
X104279246Y-116085368D01*
X104279249Y-116085366D01*
X104279253Y-116085366D01*
X104456086Y-116023489D01*
X104456838Y-116025639D01*
X104515103Y-116016031D01*
X104543588Y-116024393D01*
X104543905Y-116023489D01*
X104720745Y-116085368D01*
X104720750Y-116085369D01*
X104899996Y-116105565D01*
X104900000Y-116105565D01*
X104900004Y-116105565D01*
X105079249Y-116085369D01*
X105079251Y-116085368D01*
X105079255Y-116085368D01*
X105079258Y-116085366D01*
X105079262Y-116085366D01*
X105256095Y-116023489D01*
X105256846Y-116025637D01*
X105315128Y-116016035D01*
X105343588Y-116024392D01*
X105343905Y-116023489D01*
X105520737Y-116085366D01*
X105520743Y-116085367D01*
X105520745Y-116085368D01*
X105520746Y-116085368D01*
X105520750Y-116085369D01*
X105699996Y-116105565D01*
X105700000Y-116105565D01*
X105700004Y-116105565D01*
X105879249Y-116085369D01*
X105879252Y-116085368D01*
X105879255Y-116085368D01*
X106049522Y-116025789D01*
X106202262Y-115929816D01*
X106329816Y-115802262D01*
X106425789Y-115649522D01*
X106485368Y-115479255D01*
X106505565Y-115300000D01*
X106485368Y-115120745D01*
X106425789Y-114950478D01*
X106329816Y-114797738D01*
X106202262Y-114670184D01*
X106149993Y-114637341D01*
X106049523Y-114574211D01*
X105879254Y-114514631D01*
X105879249Y-114514630D01*
X105700004Y-114494435D01*
X105699996Y-114494435D01*
X105520750Y-114514630D01*
X105520737Y-114514633D01*
X105343906Y-114576510D01*
X105343155Y-114574364D01*
X105284856Y-114583962D01*
X105256409Y-114575609D01*
X105256094Y-114576510D01*
X105079262Y-114514633D01*
X105079249Y-114514630D01*
X104900004Y-114494435D01*
X104899996Y-114494435D01*
X104720750Y-114514630D01*
X104720737Y-114514633D01*
X104543906Y-114576510D01*
X104543155Y-114574364D01*
X104484855Y-114583964D01*
X104456401Y-114575609D01*
X104456086Y-114576511D01*
X104279245Y-114514631D01*
X104279240Y-114514630D01*
X104099995Y-114494435D01*
X104099987Y-114494435D01*
X103920741Y-114514630D01*
X103920728Y-114514633D01*
X103743897Y-114576510D01*
X103743148Y-114574369D01*
X103684812Y-114583958D01*
X103656396Y-114575611D01*
X103656082Y-114576510D01*
X103479250Y-114514633D01*
X103479237Y-114514630D01*
X103299992Y-114494435D01*
X103299984Y-114494435D01*
X103120738Y-114514630D01*
X103120725Y-114514633D01*
X102950468Y-114574209D01*
X102915964Y-114595889D01*
X102848727Y-114614888D01*
X102784024Y-114595889D01*
X102749519Y-114574209D01*
X102579262Y-114514633D01*
X102579249Y-114514630D01*
X102400004Y-114494435D01*
X102399996Y-114494435D01*
X102220750Y-114514630D01*
X102220745Y-114514631D01*
X102050476Y-114574211D01*
X101897737Y-114670184D01*
X101770184Y-114797737D01*
X101674211Y-114950476D01*
X101614631Y-115120745D01*
X101614630Y-115120750D01*
X101594435Y-115299996D01*
X100200500Y-115299996D01*
X100200500Y-113699996D01*
X109694435Y-113699996D01*
X109694435Y-113700003D01*
X109714630Y-113879249D01*
X109714631Y-113879254D01*
X109774211Y-114049523D01*
X109824662Y-114129815D01*
X109870184Y-114202262D01*
X109997738Y-114329816D01*
X110150478Y-114425789D01*
X110320745Y-114485368D01*
X110320750Y-114485369D01*
X110499996Y-114505565D01*
X110500000Y-114505565D01*
X110500004Y-114505565D01*
X110679249Y-114485369D01*
X110679252Y-114485368D01*
X110679255Y-114485368D01*
X110849522Y-114425789D01*
X110934027Y-114372691D01*
X111001264Y-114353690D01*
X111065973Y-114372691D01*
X111150475Y-114425788D01*
X111320745Y-114485368D01*
X111320750Y-114485369D01*
X111499996Y-114505565D01*
X111500000Y-114505565D01*
X111500004Y-114505565D01*
X111679249Y-114485369D01*
X111679252Y-114485368D01*
X111679255Y-114485368D01*
X111849522Y-114425789D01*
X112002262Y-114329816D01*
X112129816Y-114202262D01*
X112225789Y-114049522D01*
X112285368Y-113879255D01*
X112305565Y-113700000D01*
X112285368Y-113520745D01*
X112278108Y-113499996D01*
X114194435Y-113499996D01*
X114194435Y-113500003D01*
X114214630Y-113679249D01*
X114214631Y-113679254D01*
X114274211Y-113849523D01*
X114370184Y-114002262D01*
X114497738Y-114129816D01*
X114650478Y-114225789D01*
X114820745Y-114285368D01*
X114820750Y-114285369D01*
X114999996Y-114305565D01*
X115000000Y-114305565D01*
X115000004Y-114305565D01*
X115179249Y-114285369D01*
X115179252Y-114285368D01*
X115179255Y-114285368D01*
X115349522Y-114225789D01*
X115502262Y-114129816D01*
X115629816Y-114002262D01*
X115725789Y-113849522D01*
X115785368Y-113679255D01*
X115805565Y-113500000D01*
X115805565Y-113499996D01*
X119094435Y-113499996D01*
X119094435Y-113500003D01*
X119114630Y-113679249D01*
X119114631Y-113679254D01*
X119174211Y-113849523D01*
X119270184Y-114002262D01*
X119397738Y-114129816D01*
X119550478Y-114225789D01*
X119720745Y-114285368D01*
X119720750Y-114285369D01*
X119899996Y-114305565D01*
X119900000Y-114305565D01*
X119900004Y-114305565D01*
X120079249Y-114285369D01*
X120079252Y-114285368D01*
X120079255Y-114285368D01*
X120249522Y-114225789D01*
X120402262Y-114129816D01*
X120529816Y-114002262D01*
X120625789Y-113849522D01*
X120685368Y-113679255D01*
X120705565Y-113500000D01*
X120688718Y-113350478D01*
X120685369Y-113320750D01*
X120685368Y-113320745D01*
X120642326Y-113197738D01*
X120625789Y-113150478D01*
X120529816Y-112997738D01*
X120402262Y-112870184D01*
X120331608Y-112825789D01*
X120249523Y-112774211D01*
X120079254Y-112714631D01*
X120079249Y-112714630D01*
X119900004Y-112694435D01*
X119899996Y-112694435D01*
X119720750Y-112714630D01*
X119720745Y-112714631D01*
X119550476Y-112774211D01*
X119397737Y-112870184D01*
X119270184Y-112997737D01*
X119174211Y-113150476D01*
X119114631Y-113320745D01*
X119114630Y-113320750D01*
X119094435Y-113499996D01*
X115805565Y-113499996D01*
X115788718Y-113350478D01*
X115785369Y-113320750D01*
X115785368Y-113320745D01*
X115742326Y-113197738D01*
X115725789Y-113150478D01*
X115629816Y-112997738D01*
X115502262Y-112870184D01*
X115431608Y-112825789D01*
X115349523Y-112774211D01*
X115179254Y-112714631D01*
X115179249Y-112714630D01*
X115000004Y-112694435D01*
X114999996Y-112694435D01*
X114820750Y-112714630D01*
X114820745Y-112714631D01*
X114650476Y-112774211D01*
X114497737Y-112870184D01*
X114370184Y-112997737D01*
X114274211Y-113150476D01*
X114214631Y-113320745D01*
X114214630Y-113320750D01*
X114194435Y-113499996D01*
X112278108Y-113499996D01*
X112225789Y-113350478D01*
X112207106Y-113320745D01*
X112129815Y-113197737D01*
X112002262Y-113070184D01*
X111849523Y-112974211D01*
X111679254Y-112914631D01*
X111679249Y-112914630D01*
X111500004Y-112894435D01*
X111499996Y-112894435D01*
X111320750Y-112914630D01*
X111320737Y-112914633D01*
X111150479Y-112974209D01*
X111065971Y-113027309D01*
X110998734Y-113046309D01*
X110934029Y-113027309D01*
X110849520Y-112974209D01*
X110679262Y-112914633D01*
X110679249Y-112914630D01*
X110500004Y-112894435D01*
X110499996Y-112894435D01*
X110320750Y-112914630D01*
X110320745Y-112914631D01*
X110150476Y-112974211D01*
X109997737Y-113070184D01*
X109870184Y-113197737D01*
X109774211Y-113350476D01*
X109714631Y-113520745D01*
X109714630Y-113520750D01*
X109694435Y-113699996D01*
X100200500Y-113699996D01*
X100200500Y-109399996D01*
X100594435Y-109399996D01*
X100594435Y-109400003D01*
X100614630Y-109579249D01*
X100614631Y-109579254D01*
X100674211Y-109749523D01*
X100724662Y-109829815D01*
X100770184Y-109902262D01*
X100897738Y-110029816D01*
X100988080Y-110086582D01*
X101048254Y-110124392D01*
X101050478Y-110125789D01*
X101218347Y-110184529D01*
X101220745Y-110185368D01*
X101220750Y-110185369D01*
X101399996Y-110205565D01*
X101400000Y-110205565D01*
X101400004Y-110205565D01*
X101579249Y-110185369D01*
X101579251Y-110185368D01*
X101579255Y-110185368D01*
X101579258Y-110185366D01*
X101579262Y-110185366D01*
X101756095Y-110123489D01*
X101756846Y-110125637D01*
X101815128Y-110116035D01*
X101843588Y-110124392D01*
X101843905Y-110123489D01*
X102020737Y-110185366D01*
X102020743Y-110185367D01*
X102020745Y-110185368D01*
X102020746Y-110185368D01*
X102020750Y-110185369D01*
X102095810Y-110193825D01*
X102154802Y-110200472D01*
X102219216Y-110227538D01*
X102245912Y-110257720D01*
X102280180Y-110312257D01*
X102280184Y-110312262D01*
X102280186Y-110312264D01*
X102407740Y-110439818D01*
X102560480Y-110535791D01*
X102662470Y-110571478D01*
X102719245Y-110612200D01*
X102738554Y-110647562D01*
X102755396Y-110695690D01*
X102758957Y-110765469D01*
X102724228Y-110826096D01*
X102679309Y-110853686D01*
X102512705Y-110911983D01*
X102359965Y-111007956D01*
X102232412Y-111135509D01*
X102159185Y-111252050D01*
X102106850Y-111298341D01*
X102068076Y-111309298D01*
X102020750Y-111314630D01*
X101843905Y-111376511D01*
X101843153Y-111374364D01*
X101784856Y-111383962D01*
X101756409Y-111375609D01*
X101756094Y-111376510D01*
X101579262Y-111314633D01*
X101579249Y-111314630D01*
X101400004Y-111294435D01*
X101399996Y-111294435D01*
X101220750Y-111314630D01*
X101220745Y-111314631D01*
X101050476Y-111374211D01*
X100897737Y-111470184D01*
X100770184Y-111597737D01*
X100674211Y-111750476D01*
X100614631Y-111920745D01*
X100614630Y-111920750D01*
X100594435Y-112099996D01*
X100594435Y-112100003D01*
X100614630Y-112279249D01*
X100614631Y-112279254D01*
X100674211Y-112449523D01*
X100696956Y-112485721D01*
X100770184Y-112602262D01*
X100897738Y-112729816D01*
X100968392Y-112774211D01*
X101048254Y-112824392D01*
X101050478Y-112825789D01*
X101177352Y-112870184D01*
X101220745Y-112885368D01*
X101220750Y-112885369D01*
X101399996Y-112905565D01*
X101400000Y-112905565D01*
X101400004Y-112905565D01*
X101579249Y-112885369D01*
X101579251Y-112885368D01*
X101579255Y-112885368D01*
X101579258Y-112885366D01*
X101579262Y-112885366D01*
X101756095Y-112823489D01*
X101756846Y-112825637D01*
X101815128Y-112816035D01*
X101843588Y-112824392D01*
X101843905Y-112823489D01*
X102020737Y-112885366D01*
X102020743Y-112885367D01*
X102020745Y-112885368D01*
X102020746Y-112885368D01*
X102020750Y-112885369D01*
X102199996Y-112905565D01*
X102200000Y-112905565D01*
X102200004Y-112905565D01*
X102379249Y-112885369D01*
X102379252Y-112885368D01*
X102379255Y-112885368D01*
X102549522Y-112825789D01*
X102702262Y-112729816D01*
X102829816Y-112602262D01*
X102903044Y-112485719D01*
X102955377Y-112439429D01*
X102994151Y-112428472D01*
X103041483Y-112423140D01*
X103211750Y-112363561D01*
X103364490Y-112267588D01*
X103492044Y-112140034D01*
X103574745Y-112008416D01*
X103627077Y-111962127D01*
X103665853Y-111951170D01*
X103685780Y-111948925D01*
X103856047Y-111889346D01*
X104008787Y-111793373D01*
X104136341Y-111665819D01*
X104232314Y-111513079D01*
X104291893Y-111342812D01*
X104295068Y-111314632D01*
X104312090Y-111163560D01*
X104312090Y-111163553D01*
X104291894Y-110984307D01*
X104291891Y-110984294D01*
X104236534Y-110826096D01*
X104232314Y-110814035D01*
X104229129Y-110808966D01*
X104210127Y-110741733D01*
X104217078Y-110702043D01*
X104272717Y-110543039D01*
X104284347Y-110439818D01*
X104292914Y-110363787D01*
X104292914Y-110363780D01*
X104272718Y-110184534D01*
X104272717Y-110184529D01*
X104241064Y-110094071D01*
X104213138Y-110014262D01*
X104207673Y-110005565D01*
X104157546Y-109925788D01*
X104117165Y-109861522D01*
X103989611Y-109733968D01*
X103836871Y-109637995D01*
X103836872Y-109637995D01*
X103836870Y-109637994D01*
X103758096Y-109610430D01*
X103734880Y-109602306D01*
X103678105Y-109561586D01*
X103658794Y-109526220D01*
X103635791Y-109460479D01*
X103539817Y-109307739D01*
X103412264Y-109180186D01*
X103259525Y-109084213D01*
X103089256Y-109024633D01*
X103089252Y-109024632D01*
X102955197Y-109009528D01*
X102890783Y-108982461D01*
X102864087Y-108952280D01*
X102831237Y-108900000D01*
X102829816Y-108897738D01*
X102702262Y-108770184D01*
X102549523Y-108674211D01*
X102379254Y-108614631D01*
X102379249Y-108614630D01*
X102249362Y-108599996D01*
X109394435Y-108599996D01*
X109394435Y-108600003D01*
X109414630Y-108779249D01*
X109414631Y-108779254D01*
X109474211Y-108949523D01*
X109537646Y-109050478D01*
X109570184Y-109102262D01*
X109697738Y-109229816D01*
X109788080Y-109286582D01*
X109821751Y-109307739D01*
X109850478Y-109325789D01*
X110003258Y-109379249D01*
X110020745Y-109385368D01*
X110020750Y-109385369D01*
X110199996Y-109405565D01*
X110200000Y-109405565D01*
X110200004Y-109405565D01*
X110379249Y-109385369D01*
X110379252Y-109385368D01*
X110379255Y-109385368D01*
X110549522Y-109325789D01*
X110702262Y-109229816D01*
X110732082Y-109199996D01*
X114594435Y-109199996D01*
X114594435Y-109200003D01*
X114614630Y-109379249D01*
X114614631Y-109379254D01*
X114674211Y-109549523D01*
X114729802Y-109637995D01*
X114770184Y-109702262D01*
X114897738Y-109829816D01*
X115050478Y-109925789D01*
X115220745Y-109985368D01*
X115220750Y-109985369D01*
X115399996Y-110005565D01*
X115400000Y-110005565D01*
X115400004Y-110005565D01*
X115579249Y-109985369D01*
X115579252Y-109985368D01*
X115579255Y-109985368D01*
X115749522Y-109925789D01*
X115902262Y-109829816D01*
X116029816Y-109702262D01*
X116125789Y-109549522D01*
X116185368Y-109379255D01*
X116191392Y-109325789D01*
X116205565Y-109200003D01*
X116205565Y-109199996D01*
X116185369Y-109020750D01*
X116185368Y-109020745D01*
X116160446Y-108949522D01*
X116143116Y-108899996D01*
X119394435Y-108899996D01*
X119394435Y-108900003D01*
X119414630Y-109079249D01*
X119414631Y-109079254D01*
X119474211Y-109249523D01*
X119555724Y-109379249D01*
X119570184Y-109402262D01*
X119697738Y-109529816D01*
X119748300Y-109561586D01*
X119813106Y-109602307D01*
X119850478Y-109625789D01*
X119885361Y-109637995D01*
X120020745Y-109685368D01*
X120020750Y-109685369D01*
X120199996Y-109705565D01*
X120200000Y-109705565D01*
X120200004Y-109705565D01*
X120379249Y-109685369D01*
X120379252Y-109685368D01*
X120379255Y-109685368D01*
X120549522Y-109625789D01*
X120702262Y-109529816D01*
X120829816Y-109402262D01*
X120925789Y-109249522D01*
X120985368Y-109079255D01*
X120985369Y-109079249D01*
X121005565Y-108900003D01*
X121005565Y-108899996D01*
X120985369Y-108720750D01*
X120985368Y-108720745D01*
X120980183Y-108705928D01*
X120925789Y-108550478D01*
X120829816Y-108397738D01*
X120702262Y-108270184D01*
X120670897Y-108250476D01*
X120549523Y-108174211D01*
X120379254Y-108114631D01*
X120379249Y-108114630D01*
X120200004Y-108094435D01*
X120199996Y-108094435D01*
X120020750Y-108114630D01*
X120020745Y-108114631D01*
X119850476Y-108174211D01*
X119697737Y-108270184D01*
X119570184Y-108397737D01*
X119474211Y-108550476D01*
X119414631Y-108720745D01*
X119414630Y-108720750D01*
X119394435Y-108899996D01*
X116143116Y-108899996D01*
X116125789Y-108850478D01*
X116029816Y-108697738D01*
X115902262Y-108570184D01*
X115870897Y-108550476D01*
X115749523Y-108474211D01*
X115579254Y-108414631D01*
X115579249Y-108414630D01*
X115400004Y-108394435D01*
X115399996Y-108394435D01*
X115220750Y-108414630D01*
X115220745Y-108414631D01*
X115050476Y-108474211D01*
X114897737Y-108570184D01*
X114770184Y-108697737D01*
X114674211Y-108850476D01*
X114614631Y-109020745D01*
X114614630Y-109020750D01*
X114594435Y-109199996D01*
X110732082Y-109199996D01*
X110829816Y-109102262D01*
X110925789Y-108949522D01*
X110985368Y-108779255D01*
X110991960Y-108720750D01*
X111005565Y-108600003D01*
X111005565Y-108599996D01*
X110985369Y-108420750D01*
X110985368Y-108420745D01*
X110983228Y-108414630D01*
X110925789Y-108250478D01*
X110829816Y-108097738D01*
X110702262Y-107970184D01*
X110549523Y-107874211D01*
X110379254Y-107814631D01*
X110379249Y-107814630D01*
X110200004Y-107794435D01*
X110199996Y-107794435D01*
X110020750Y-107814630D01*
X110020745Y-107814631D01*
X109850476Y-107874211D01*
X109697737Y-107970184D01*
X109570184Y-108097737D01*
X109474211Y-108250476D01*
X109414631Y-108420745D01*
X109414630Y-108420750D01*
X109394435Y-108599996D01*
X102249362Y-108599996D01*
X102200004Y-108594435D01*
X102199996Y-108594435D01*
X102020750Y-108614630D01*
X102020737Y-108614633D01*
X101843906Y-108676510D01*
X101843155Y-108674364D01*
X101784856Y-108683962D01*
X101756409Y-108675609D01*
X101756094Y-108676510D01*
X101579262Y-108614633D01*
X101579249Y-108614630D01*
X101400004Y-108594435D01*
X101399996Y-108594435D01*
X101220750Y-108614630D01*
X101220745Y-108614631D01*
X101050476Y-108674211D01*
X100897737Y-108770184D01*
X100770184Y-108897737D01*
X100674211Y-109050476D01*
X100614631Y-109220745D01*
X100614630Y-109220750D01*
X100594435Y-109399996D01*
X100200500Y-109399996D01*
X100200500Y-106199996D01*
X101894435Y-106199996D01*
X101894435Y-106200003D01*
X101914630Y-106379249D01*
X101914631Y-106379254D01*
X101974211Y-106549523D01*
X102070184Y-106702262D01*
X102197738Y-106829816D01*
X102285733Y-106885107D01*
X102348254Y-106924392D01*
X102350478Y-106925789D01*
X102520739Y-106985366D01*
X102520745Y-106985368D01*
X102520750Y-106985369D01*
X102699996Y-107005565D01*
X102700000Y-107005565D01*
X102700004Y-107005565D01*
X102879249Y-106985369D01*
X102879252Y-106985368D01*
X102879255Y-106985368D01*
X103049522Y-106925789D01*
X103051746Y-106924392D01*
X103084027Y-106904108D01*
X103151263Y-106885107D01*
X103215973Y-106904108D01*
X103250475Y-106925788D01*
X103420745Y-106985368D01*
X103420750Y-106985369D01*
X103599996Y-107005565D01*
X103600000Y-107005565D01*
X103600004Y-107005565D01*
X103779249Y-106985369D01*
X103779251Y-106985368D01*
X103779255Y-106985368D01*
X103779258Y-106985366D01*
X103779262Y-106985366D01*
X103956095Y-106923489D01*
X103956846Y-106925637D01*
X104015128Y-106916035D01*
X104043588Y-106924392D01*
X104043905Y-106923489D01*
X104220737Y-106985366D01*
X104220743Y-106985367D01*
X104220745Y-106985368D01*
X104220746Y-106985368D01*
X104220750Y-106985369D01*
X104399996Y-107005565D01*
X104400000Y-107005565D01*
X104400004Y-107005565D01*
X104579249Y-106985369D01*
X104579251Y-106985368D01*
X104579255Y-106985368D01*
X104579258Y-106985366D01*
X104579262Y-106985366D01*
X104756095Y-106923489D01*
X104756846Y-106925637D01*
X104815128Y-106916035D01*
X104843588Y-106924392D01*
X104843905Y-106923489D01*
X105020737Y-106985366D01*
X105020743Y-106985367D01*
X105020745Y-106985368D01*
X105020746Y-106985368D01*
X105020750Y-106985369D01*
X105199996Y-107005565D01*
X105200000Y-107005565D01*
X105200004Y-107005565D01*
X105379249Y-106985369D01*
X105379251Y-106985368D01*
X105379255Y-106985368D01*
X105379258Y-106985366D01*
X105379262Y-106985366D01*
X105556095Y-106923489D01*
X105556846Y-106925637D01*
X105615128Y-106916035D01*
X105643588Y-106924392D01*
X105643905Y-106923489D01*
X105820737Y-106985366D01*
X105820743Y-106985367D01*
X105820745Y-106985368D01*
X105820746Y-106985368D01*
X105820750Y-106985369D01*
X105999996Y-107005565D01*
X106000000Y-107005565D01*
X106000004Y-107005565D01*
X106179249Y-106985369D01*
X106179252Y-106985368D01*
X106179255Y-106985368D01*
X106349522Y-106925789D01*
X106502262Y-106829816D01*
X106629816Y-106702262D01*
X106725789Y-106549522D01*
X106785368Y-106379255D01*
X106805565Y-106200000D01*
X106785368Y-106020745D01*
X106725789Y-105850478D01*
X106629816Y-105697738D01*
X106502262Y-105570184D01*
X106449999Y-105537345D01*
X106349523Y-105474211D01*
X106179254Y-105414631D01*
X106179249Y-105414630D01*
X106000004Y-105394435D01*
X105999996Y-105394435D01*
X105820750Y-105414630D01*
X105820737Y-105414633D01*
X105643906Y-105476510D01*
X105643155Y-105474364D01*
X105584856Y-105483962D01*
X105556409Y-105475609D01*
X105556094Y-105476510D01*
X105379262Y-105414633D01*
X105379249Y-105414630D01*
X105200004Y-105394435D01*
X105199996Y-105394435D01*
X105020750Y-105414630D01*
X105020737Y-105414633D01*
X104843906Y-105476510D01*
X104843155Y-105474364D01*
X104784856Y-105483962D01*
X104756409Y-105475609D01*
X104756094Y-105476510D01*
X104579262Y-105414633D01*
X104579249Y-105414630D01*
X104400004Y-105394435D01*
X104399996Y-105394435D01*
X104220750Y-105414630D01*
X104220737Y-105414633D01*
X104043906Y-105476510D01*
X104043155Y-105474364D01*
X103984856Y-105483962D01*
X103956409Y-105475609D01*
X103956094Y-105476510D01*
X103779262Y-105414633D01*
X103779249Y-105414630D01*
X103600004Y-105394435D01*
X103599996Y-105394435D01*
X103420750Y-105414630D01*
X103420737Y-105414633D01*
X103250480Y-105474209D01*
X103215970Y-105495893D01*
X103148733Y-105514892D01*
X103084030Y-105495893D01*
X103049519Y-105474209D01*
X102879262Y-105414633D01*
X102879249Y-105414630D01*
X102700004Y-105394435D01*
X102699996Y-105394435D01*
X102520750Y-105414630D01*
X102520745Y-105414631D01*
X102350476Y-105474211D01*
X102197737Y-105570184D01*
X102070184Y-105697737D01*
X101974211Y-105850476D01*
X101914631Y-106020745D01*
X101914630Y-106020750D01*
X101894435Y-106199996D01*
X100200500Y-106199996D01*
X100200500Y-103199996D01*
X104894435Y-103199996D01*
X104894435Y-103200003D01*
X104914630Y-103379249D01*
X104914631Y-103379254D01*
X104974211Y-103549523D01*
X105009425Y-103605565D01*
X105070184Y-103702262D01*
X105197738Y-103829816D01*
X105350478Y-103925789D01*
X105402548Y-103944009D01*
X105520745Y-103985368D01*
X105520750Y-103985369D01*
X105699996Y-104005565D01*
X105700000Y-104005565D01*
X105700004Y-104005565D01*
X105879249Y-103985369D01*
X105879252Y-103985368D01*
X105879255Y-103985368D01*
X106049522Y-103925789D01*
X106202262Y-103829816D01*
X106329816Y-103702262D01*
X106425789Y-103549522D01*
X106485368Y-103379255D01*
X106505565Y-103200000D01*
X106505565Y-103199996D01*
X109594435Y-103199996D01*
X109594435Y-103200003D01*
X109614630Y-103379249D01*
X109614631Y-103379254D01*
X109674211Y-103549523D01*
X109709425Y-103605565D01*
X109770184Y-103702262D01*
X109897738Y-103829816D01*
X110050478Y-103925789D01*
X110102548Y-103944009D01*
X110220745Y-103985368D01*
X110220750Y-103985369D01*
X110399996Y-104005565D01*
X110400000Y-104005565D01*
X110400004Y-104005565D01*
X110579249Y-103985369D01*
X110579252Y-103985368D01*
X110579255Y-103985368D01*
X110749522Y-103925789D01*
X110902262Y-103829816D01*
X111029816Y-103702262D01*
X111125789Y-103549522D01*
X111185368Y-103379255D01*
X111205565Y-103200000D01*
X111185368Y-103020745D01*
X111125789Y-102850478D01*
X111094069Y-102799996D01*
X114194435Y-102799996D01*
X114194435Y-102800003D01*
X114214630Y-102979249D01*
X114214631Y-102979254D01*
X114274211Y-103149523D01*
X114305926Y-103199996D01*
X114370184Y-103302262D01*
X114497738Y-103429816D01*
X114650478Y-103525789D01*
X114718306Y-103549523D01*
X114820745Y-103585368D01*
X114820750Y-103585369D01*
X114999996Y-103605565D01*
X115000000Y-103605565D01*
X115000004Y-103605565D01*
X115179249Y-103585369D01*
X115179252Y-103585368D01*
X115179255Y-103585368D01*
X115349522Y-103525789D01*
X115502262Y-103429816D01*
X115629816Y-103302262D01*
X115725789Y-103149522D01*
X115785368Y-102979255D01*
X115785369Y-102979249D01*
X115805565Y-102800003D01*
X115805565Y-102799996D01*
X117294435Y-102799996D01*
X117294435Y-102800003D01*
X117314630Y-102979249D01*
X117314631Y-102979254D01*
X117374211Y-103149523D01*
X117405926Y-103199996D01*
X117470184Y-103302262D01*
X117597738Y-103429816D01*
X117750478Y-103525789D01*
X117818306Y-103549523D01*
X117920745Y-103585368D01*
X117920750Y-103585369D01*
X118099996Y-103605565D01*
X118100000Y-103605565D01*
X118100004Y-103605565D01*
X118279249Y-103585369D01*
X118279252Y-103585368D01*
X118279255Y-103585368D01*
X118449522Y-103525789D01*
X118602262Y-103429816D01*
X118729816Y-103302262D01*
X118825789Y-103149522D01*
X118885368Y-102979255D01*
X118885369Y-102979249D01*
X118905565Y-102800003D01*
X118905565Y-102799996D01*
X118885369Y-102620750D01*
X118885368Y-102620745D01*
X118867676Y-102570184D01*
X118825789Y-102450478D01*
X118803265Y-102414632D01*
X118729815Y-102297737D01*
X118602262Y-102170184D01*
X118449523Y-102074211D01*
X118279254Y-102014631D01*
X118279249Y-102014630D01*
X118100004Y-101994435D01*
X118099996Y-101994435D01*
X117920750Y-102014630D01*
X117920745Y-102014631D01*
X117750476Y-102074211D01*
X117597737Y-102170184D01*
X117470184Y-102297737D01*
X117374211Y-102450476D01*
X117314631Y-102620745D01*
X117314630Y-102620750D01*
X117294435Y-102799996D01*
X115805565Y-102799996D01*
X115785369Y-102620750D01*
X115785368Y-102620745D01*
X115767676Y-102570184D01*
X115725789Y-102450478D01*
X115703265Y-102414632D01*
X115629815Y-102297737D01*
X115502262Y-102170184D01*
X115349523Y-102074211D01*
X115179254Y-102014631D01*
X115179249Y-102014630D01*
X115000004Y-101994435D01*
X114999996Y-101994435D01*
X114820750Y-102014630D01*
X114820745Y-102014631D01*
X114650476Y-102074211D01*
X114497737Y-102170184D01*
X114370184Y-102297737D01*
X114274211Y-102450476D01*
X114214631Y-102620745D01*
X114214630Y-102620750D01*
X114194435Y-102799996D01*
X111094069Y-102799996D01*
X111029816Y-102697738D01*
X110902262Y-102570184D01*
X110749523Y-102474211D01*
X110579254Y-102414631D01*
X110579249Y-102414630D01*
X110400004Y-102394435D01*
X110399996Y-102394435D01*
X110220750Y-102414630D01*
X110220745Y-102414631D01*
X110050476Y-102474211D01*
X109897737Y-102570184D01*
X109770184Y-102697737D01*
X109674211Y-102850476D01*
X109614631Y-103020745D01*
X109614630Y-103020750D01*
X109594435Y-103199996D01*
X106505565Y-103199996D01*
X106485368Y-103020745D01*
X106425789Y-102850478D01*
X106329816Y-102697738D01*
X106202262Y-102570184D01*
X106049523Y-102474211D01*
X105879254Y-102414631D01*
X105879249Y-102414630D01*
X105700004Y-102394435D01*
X105699996Y-102394435D01*
X105520750Y-102414630D01*
X105520745Y-102414631D01*
X105350476Y-102474211D01*
X105197737Y-102570184D01*
X105070184Y-102697737D01*
X104974211Y-102850476D01*
X104914631Y-103020745D01*
X104914630Y-103020750D01*
X104894435Y-103199996D01*
X100200500Y-103199996D01*
X100200500Y-100324500D01*
X100220185Y-100257461D01*
X100272989Y-100211706D01*
X100324500Y-100200500D01*
X121675500Y-100200500D01*
X121742539Y-100220185D01*
G37*
%TD.AperFunction*%
%TD*%
M02*
