%TF.GenerationSoftware,KiCad,Pcbnew,8.0.8*%
%TF.CreationDate,2025-09-03T22:29:27+08:00*%
%TF.ProjectId,FrekLedMini,4672656b-4c65-4644-9d69-6e692e6b6963,rev?*%
%TF.SameCoordinates,Original*%
%TF.FileFunction,Legend,Top*%
%TF.FilePolarity,Positive*%
%FSLAX46Y46*%
G04 Gerber Fmt 4.6, Leading zero omitted, Abs format (unit mm)*
G04 Created by KiCad (PCBNEW 8.0.8) date 2025-09-03 22:29:27*
%MOMM*%
%LPD*%
G01*
G04 APERTURE LIST*
%ADD10C,0.153000*%
%ADD11C,0.120000*%
%ADD12C,0.152400*%
%ADD13C,0.000000*%
G04 APERTURE END LIST*
D10*
X116238095Y-108454663D02*
X116238095Y-109264186D01*
X116238095Y-109264186D02*
X116285714Y-109359424D01*
X116285714Y-109359424D02*
X116333333Y-109407044D01*
X116333333Y-109407044D02*
X116428571Y-109454663D01*
X116428571Y-109454663D02*
X116619047Y-109454663D01*
X116619047Y-109454663D02*
X116714285Y-109407044D01*
X116714285Y-109407044D02*
X116761904Y-109359424D01*
X116761904Y-109359424D02*
X116809523Y-109264186D01*
X116809523Y-109264186D02*
X116809523Y-108454663D01*
X117809523Y-109454663D02*
X117238095Y-109454663D01*
X117523809Y-109454663D02*
X117523809Y-108454663D01*
X117523809Y-108454663D02*
X117428571Y-108597520D01*
X117428571Y-108597520D02*
X117333333Y-108692758D01*
X117333333Y-108692758D02*
X117238095Y-108740377D01*
X109538095Y-110154663D02*
X109538095Y-110964186D01*
X109538095Y-110964186D02*
X109585714Y-111059424D01*
X109585714Y-111059424D02*
X109633333Y-111107044D01*
X109633333Y-111107044D02*
X109728571Y-111154663D01*
X109728571Y-111154663D02*
X109919047Y-111154663D01*
X109919047Y-111154663D02*
X110014285Y-111107044D01*
X110014285Y-111107044D02*
X110061904Y-111059424D01*
X110061904Y-111059424D02*
X110109523Y-110964186D01*
X110109523Y-110964186D02*
X110109523Y-110154663D01*
X110538095Y-110249901D02*
X110585714Y-110202282D01*
X110585714Y-110202282D02*
X110680952Y-110154663D01*
X110680952Y-110154663D02*
X110919047Y-110154663D01*
X110919047Y-110154663D02*
X111014285Y-110202282D01*
X111014285Y-110202282D02*
X111061904Y-110249901D01*
X111061904Y-110249901D02*
X111109523Y-110345139D01*
X111109523Y-110345139D02*
X111109523Y-110440377D01*
X111109523Y-110440377D02*
X111061904Y-110583234D01*
X111061904Y-110583234D02*
X110490476Y-111154663D01*
X110490476Y-111154663D02*
X111109523Y-111154663D01*
X108354663Y-106499999D02*
X108592758Y-106499999D01*
X108497520Y-106738094D02*
X108592758Y-106499999D01*
X108592758Y-106499999D02*
X108497520Y-106261904D01*
X108783234Y-106642856D02*
X108592758Y-106499999D01*
X108592758Y-106499999D02*
X108783234Y-106357142D01*
%TO.C,J1*%
X106480000Y-117270000D02*
X107530000Y-117270000D01*
X106480000Y-120430000D02*
X106480000Y-117270000D01*
X107630000Y-120430000D02*
X106480000Y-120430000D01*
X114270000Y-117270000D02*
X115420000Y-117270000D01*
X115420000Y-117270000D02*
X115420000Y-120430000D01*
X115420000Y-120430000D02*
X114370000Y-120430000D01*
X116050000Y-119715000D02*
G75*
G02*
X115850000Y-119715000I-100000J0D01*
G01*
X115850000Y-119715000D02*
G75*
G02*
X116050000Y-119715000I100000J0D01*
G01*
D11*
%TO.C,R5*%
X110736359Y-116020000D02*
X111043641Y-116020000D01*
X110736359Y-116780000D02*
X111043641Y-116780000D01*
%TO.C,C3*%
X109240000Y-114172164D02*
X109240000Y-114387836D01*
X109960000Y-114172164D02*
X109960000Y-114387836D01*
D10*
%TO.C,U1*%
X116462500Y-101440000D02*
X114262500Y-101440000D01*
X116462500Y-101440000D02*
X118662500Y-101440000D01*
X116462500Y-108210000D02*
X114262500Y-108210000D01*
X116462500Y-108210000D02*
X118662500Y-108210000D01*
X120652500Y-107990000D02*
X120322500Y-107750000D01*
X120652500Y-107510000D01*
X120652500Y-107990000D01*
G36*
X120652500Y-107990000D02*
G01*
X120322500Y-107750000D01*
X120652500Y-107510000D01*
X120652500Y-107990000D01*
G37*
%TO.C,R1*%
X107843641Y-114820000D02*
X107536359Y-114820000D01*
X107843641Y-115580000D02*
X107536359Y-115580000D01*
%TO.C,TP1*%
X110400000Y-106000000D02*
X111800000Y-106000000D01*
X110400000Y-107400000D02*
X110400000Y-106000000D01*
X111800000Y-106000000D02*
X111800000Y-107400000D01*
X111800000Y-107400000D02*
X110400000Y-107400000D01*
D12*
%TO.C,U2*%
X100948293Y-108655311D02*
X100948293Y-112999389D01*
X109101693Y-112999389D02*
X109101693Y-108655311D01*
D13*
G36*
X102940542Y-106966550D02*
G01*
X102559542Y-106966550D01*
X102559542Y-106712550D01*
X102940542Y-106712550D01*
X102940542Y-106966550D01*
G37*
G36*
X106190472Y-114942150D02*
G01*
X105809472Y-114942150D01*
X105809472Y-114688150D01*
X106190472Y-114688150D01*
X106190472Y-114942150D01*
G37*
D10*
%TO.C,R4*%
X111143641Y-121020000D02*
X110836359Y-121020000D01*
X111143641Y-121780000D02*
X110836359Y-121780000D01*
%TO.C,C1*%
X120440000Y-102087836D02*
X120440000Y-101872164D01*
X121160000Y-102087836D02*
X121160000Y-101872164D01*
%TD*%
M02*
