%TF.GenerationSoftware,KiCad,Pcbnew,8.0.8*%
%TF.CreationDate,2025-09-03T22:29:27+08:00*%
%TF.ProjectId,FrekLedMini,4672656b-4c65-4644-9d69-6e692e6b6963,rev?*%
%TF.SameCoordinates,Original*%
%TF.FileFunction,Copper,L4,Bot*%
%TF.FilePolarity,Positive*%
%FSLAX46Y46*%
G04 Gerber Fmt 4.6, Leading zero omitted, Abs format (unit mm)*
G04 Created by KiCad (PCBNEW 8.0.8) date 2025-09-03 22:29:27*
%MOMM*%
%LPD*%
G01*
G04 APERTURE LIST*
G04 Aperture macros list*
%AMRoundRect*
0 Rectangle with rounded corners*
0 $1 Rounding radius*
0 $2 $3 $4 $5 $6 $7 $8 $9 X,Y pos of 4 corners*
0 Add a 4 corners polygon primitive as box body*
4,1,4,$2,$3,$4,$5,$6,$7,$8,$9,$2,$3,0*
0 Add four circle primitives for the rounded corners*
1,1,$1+$1,$2,$3*
1,1,$1+$1,$4,$5*
1,1,$1+$1,$6,$7*
1,1,$1+$1,$8,$9*
0 Add four rect primitives between the rounded corners*
20,1,$1+$1,$2,$3,$4,$5,0*
20,1,$1+$1,$4,$5,$6,$7,0*
20,1,$1+$1,$6,$7,$8,$9,0*
20,1,$1+$1,$8,$9,$2,$3,0*%
G04 Aperture macros list end*
%TA.AperFunction,ComponentPad*%
%ADD10O,1.400000X1.150000*%
%TD*%
%TA.AperFunction,SMDPad,CuDef*%
%ADD11RoundRect,0.147500X-0.147500X-0.172500X0.147500X-0.172500X0.147500X0.172500X-0.147500X0.172500X0*%
%TD*%
%TA.AperFunction,ViaPad*%
%ADD12C,0.600000*%
%TD*%
%TA.AperFunction,Conductor*%
%ADD13C,0.200000*%
%TD*%
G04 APERTURE END LIST*
D10*
%TO.P,J1,SH1,SHIELD*%
%TO.N,GND*%
X113350000Y-121000000D03*
%TO.P,J1,SH2,SHIELD__1*%
X108550000Y-121000000D03*
%TO.P,J1,SH3,SHIELD__2*%
X113350000Y-116700000D03*
%TO.P,J1,SH4,SHIELD__3*%
X108550000Y-116700000D03*
%TD*%
D11*
%TO.P,D6,1,K*%
%TO.N,/LED10*%
X108115000Y-113400000D03*
%TO.P,D6,2,A*%
%TO.N,+5V*%
X109085000Y-113400000D03*
%TD*%
%TO.P,D5,1,K*%
%TO.N,/LED9*%
X103315000Y-113400000D03*
%TO.P,D5,2,A*%
%TO.N,+5V*%
X104285000Y-113400000D03*
%TD*%
%TO.P,D14,1,K*%
%TO.N,/LED3*%
X108115000Y-103800000D03*
%TO.P,D14,2,A*%
%TO.N,+5V*%
X109085000Y-103800000D03*
%TD*%
%TO.P,D4,1,K*%
%TO.N,/LED16*%
X117715000Y-118200000D03*
%TO.P,D4,2,A*%
%TO.N,+5V*%
X118685000Y-118200000D03*
%TD*%
%TO.P,D1,1,K*%
%TO.N,/LED13*%
X103315000Y-118200000D03*
%TO.P,D1,2,A*%
%TO.N,+5V*%
X104285000Y-118200000D03*
%TD*%
%TO.P,D11,1,K*%
%TO.N,/LED6*%
X112915000Y-108600000D03*
%TO.P,D11,2,A*%
%TO.N,+5V*%
X113885000Y-108600000D03*
%TD*%
%TO.P,D15,1,K*%
%TO.N,/LED2*%
X112915000Y-103800000D03*
%TO.P,D15,2,A*%
%TO.N,+5V*%
X113885000Y-103800000D03*
%TD*%
%TO.P,D7,1,K*%
%TO.N,/LED11*%
X112915000Y-113400000D03*
%TO.P,D7,2,A*%
%TO.N,+5V*%
X113885000Y-113400000D03*
%TD*%
%TO.P,D3,1,K*%
%TO.N,/LED15*%
X112915000Y-118200000D03*
%TO.P,D3,2,A*%
%TO.N,+5V*%
X113885000Y-118200000D03*
%TD*%
%TO.P,D9,1,K*%
%TO.N,/LED8*%
X103315000Y-108600000D03*
%TO.P,D9,2,A*%
%TO.N,+5V*%
X104285000Y-108600000D03*
%TD*%
%TO.P,D8,1,K*%
%TO.N,/LED12*%
X117715000Y-113400000D03*
%TO.P,D8,2,A*%
%TO.N,+5V*%
X118685000Y-113400000D03*
%TD*%
%TO.P,D13,1,K*%
%TO.N,/LED4*%
X103315000Y-103800000D03*
%TO.P,D13,2,A*%
%TO.N,+5V*%
X104285000Y-103800000D03*
%TD*%
%TO.P,D16,1,K*%
%TO.N,/LED1*%
X117715000Y-103800000D03*
%TO.P,D16,2,A*%
%TO.N,+5V*%
X118685000Y-103800000D03*
%TD*%
%TO.P,D12,1,K*%
%TO.N,/LED5*%
X117715000Y-108600000D03*
%TO.P,D12,2,A*%
%TO.N,+5V*%
X118685000Y-108600000D03*
%TD*%
%TO.P,D2,1,K*%
%TO.N,/LED14*%
X108115000Y-118200000D03*
%TO.P,D2,2,A*%
%TO.N,+5V*%
X109085000Y-118200000D03*
%TD*%
%TO.P,D10,1,K*%
%TO.N,/LED7*%
X108115000Y-108600000D03*
%TO.P,D10,2,A*%
%TO.N,+5V*%
X109085000Y-108600000D03*
%TD*%
D12*
%TO.N,GND*%
X110500000Y-120800000D03*
X111600000Y-115500000D03*
%TO.N,+5V*%
X110500000Y-113700000D03*
X111500000Y-113700000D03*
X112200000Y-118800000D03*
X105350000Y-118200000D03*
X102700000Y-106200000D03*
X110400000Y-103200000D03*
X119900000Y-113500000D03*
X110200000Y-108600000D03*
X115000000Y-113500000D03*
X115000000Y-102800000D03*
X120200000Y-108900000D03*
X109700000Y-118900000D03*
X118100000Y-102800000D03*
X105700000Y-103200000D03*
X102400000Y-115300000D03*
X115400000Y-109200000D03*
X119800000Y-118200000D03*
X121305514Y-103594486D03*
%TO.N,GND*%
X106500000Y-115200000D03*
X114600000Y-119800000D03*
X107000000Y-119800000D03*
X114800000Y-117900000D03*
X117900000Y-105200000D03*
X120800000Y-100700000D03*
X110500000Y-115000000D03*
X109900000Y-107400000D03*
X107100000Y-117900000D03*
%TO.N,/LED1*%
X106000000Y-106200000D03*
%TO.N,/LED2*%
X105200000Y-106200000D03*
%TO.N,/LED3*%
X104400000Y-106200000D03*
%TO.N,/LED4*%
X103600000Y-106200000D03*
%TO.N,/LED5*%
X103487349Y-110363784D03*
%TO.N,/LED6*%
X102910002Y-109810002D03*
%TO.N,/LED7*%
X102200000Y-109400000D03*
%TO.N,/LED8*%
X101400000Y-109400000D03*
%TO.N,/LED9*%
X101400000Y-112100000D03*
%TO.N,/LED10*%
X102200000Y-112100000D03*
%TO.N,/LED11*%
X102862228Y-111637772D03*
%TO.N,/LED12*%
X103506525Y-111163557D03*
%TO.N,/LED13*%
X103299988Y-115300000D03*
%TO.N,/LED14*%
X104099991Y-115300000D03*
%TO.N,/LED15*%
X104900000Y-115300000D03*
%TO.N,/LED16*%
X105700000Y-115300000D03*
%TD*%
D13*
%TO.N,+5V*%
X115000000Y-102800000D02*
X114720000Y-102800000D01*
X114720000Y-102800000D02*
X113720000Y-103800000D01*
X109700000Y-118815000D02*
X109085000Y-118200000D01*
X109700000Y-118900000D02*
X109700000Y-118815000D01*
X113285000Y-118800000D02*
X113885000Y-118200000D01*
X112200000Y-118800000D02*
X113285000Y-118800000D01*
X110400000Y-103200000D02*
X109520000Y-103200000D01*
X104120000Y-107620000D02*
X104120000Y-108600000D01*
X113820000Y-113500000D02*
X113720000Y-113400000D01*
X118620000Y-113500000D02*
X118520000Y-113400000D01*
X102400000Y-115300000D02*
X103100000Y-114600000D01*
X103100000Y-114600000D02*
X103119999Y-114600000D01*
X105500000Y-118200000D02*
X104120000Y-118200000D01*
X118520000Y-108600000D02*
X119900000Y-108600000D01*
X108920000Y-118330172D02*
X108920000Y-118200000D01*
X111500000Y-113700000D02*
X110900000Y-113100000D01*
X118520000Y-118200000D02*
X119800000Y-118200000D01*
X114800000Y-108600000D02*
X115400000Y-109200000D01*
X103119999Y-114600000D02*
X104120000Y-113599999D01*
X104720000Y-103200000D02*
X104120000Y-103800000D01*
X110200000Y-108600000D02*
X108920000Y-108600000D01*
X104120000Y-113599999D02*
X104120000Y-113400000D01*
X102700000Y-106200000D02*
X104120000Y-107620000D01*
X119900000Y-108600000D02*
X120200000Y-108900000D01*
X105700000Y-103200000D02*
X104720000Y-103200000D01*
X109220000Y-113100000D02*
X108920000Y-113400000D01*
X119900000Y-113500000D02*
X118620000Y-113500000D01*
X118100000Y-102800000D02*
X118100000Y-103215000D01*
X115000000Y-113500000D02*
X113820000Y-113500000D01*
X109520000Y-103200000D02*
X108920000Y-103800000D01*
X118100000Y-103215000D02*
X118685000Y-103800000D01*
X110900000Y-113100000D02*
X109220000Y-113100000D01*
X113720000Y-108600000D02*
X114800000Y-108600000D01*
%TO.N,/LED1*%
X116780000Y-104900000D02*
X107300000Y-104900000D01*
X107300000Y-104900000D02*
X106000000Y-106200000D01*
X117880000Y-103800000D02*
X116780000Y-104900000D01*
%TO.N,/LED2*%
X105200000Y-105700000D02*
X105200000Y-106200000D01*
X112380000Y-104500000D02*
X106400000Y-104500000D01*
X113080000Y-103800000D02*
X112380000Y-104500000D01*
X106400000Y-104500000D02*
X105200000Y-105700000D01*
%TO.N,/LED3*%
X108280000Y-103800000D02*
X105900000Y-103800000D01*
X104400000Y-105300000D02*
X104400000Y-106200000D01*
X105900000Y-103800000D02*
X104400000Y-105300000D01*
%TO.N,/LED4*%
X103480000Y-103800000D02*
X103480000Y-106080000D01*
X103480000Y-106080000D02*
X103600000Y-106200000D01*
%TO.N,/LED5*%
X103623565Y-110500000D02*
X115980000Y-110500000D01*
X115980000Y-110500000D02*
X117880000Y-108600000D01*
X103487349Y-110363784D02*
X103623565Y-110500000D01*
%TO.N,/LED6*%
X102910002Y-109810002D02*
X103020004Y-109700000D01*
X103020004Y-109700000D02*
X111980000Y-109700000D01*
X111980000Y-109700000D02*
X113080000Y-108600000D01*
%TO.N,/LED7*%
X107680000Y-109200000D02*
X102400000Y-109200000D01*
X102400000Y-109200000D02*
X102200000Y-109400000D01*
X108280000Y-108600000D02*
X107680000Y-109200000D01*
%TO.N,/LED8*%
X102151471Y-108600000D02*
X101400000Y-109351471D01*
X101400000Y-109351471D02*
X101400000Y-109400000D01*
X103480000Y-108600000D02*
X102151471Y-108600000D01*
%TO.N,/LED9*%
X101400000Y-112148529D02*
X101400000Y-112100000D01*
X102651471Y-113400000D02*
X101400000Y-112148529D01*
X103480000Y-113400000D02*
X102651471Y-113400000D01*
%TO.N,/LED10*%
X108280000Y-113400000D02*
X107580000Y-112700000D01*
X107580000Y-112700000D02*
X102800000Y-112700000D01*
X102800000Y-112700000D02*
X102200000Y-112100000D01*
%TO.N,/LED11*%
X102862228Y-111637772D02*
X103324456Y-112100000D01*
X111780000Y-112100000D02*
X113080000Y-113400000D01*
X103324456Y-112100000D02*
X111780000Y-112100000D01*
%TO.N,/LED12*%
X103506525Y-111163557D02*
X103642968Y-111300000D01*
X103642968Y-111300000D02*
X115780000Y-111300000D01*
X115780000Y-111300000D02*
X117880000Y-113400000D01*
%TO.N,/LED13*%
X103299988Y-115300000D02*
X103480000Y-115480012D01*
X103480000Y-115480012D02*
X103480000Y-118200000D01*
%TO.N,/LED14*%
X104099991Y-115300000D02*
X104099991Y-115499991D01*
X108280000Y-118080000D02*
X108280000Y-118200000D01*
X104099991Y-115499991D02*
X105500000Y-116900000D01*
X107100000Y-116900000D02*
X108280000Y-118080000D01*
X105500000Y-116900000D02*
X107100000Y-116900000D01*
%TO.N,/LED15*%
X105500000Y-116000000D02*
X106548529Y-116000000D01*
X109400000Y-115500000D02*
X111100000Y-117200000D01*
X112080000Y-117200000D02*
X113080000Y-118200000D01*
X104900000Y-115400000D02*
X105500000Y-116000000D01*
X107048529Y-115500000D02*
X109400000Y-115500000D01*
X104900000Y-115300000D02*
X104900000Y-115400000D01*
X111100000Y-117200000D02*
X112080000Y-117200000D01*
X106548529Y-116000000D02*
X107048529Y-115500000D01*
%TO.N,/LED16*%
X105700000Y-115300000D02*
X105700000Y-115151471D01*
X106551471Y-114300000D02*
X113980000Y-114300000D01*
X105700000Y-115151471D02*
X106551471Y-114300000D01*
X113980000Y-114300000D02*
X117880000Y-118200000D01*
%TD*%
M02*
