%TF.GenerationSoftware,KiCad,Pcbnew,8.0.8*%
%TF.CreationDate,2025-09-03T22:29:27+08:00*%
%TF.ProjectId,FrekLedMini,4672656b-4c65-4644-9d69-6e692e6b6963,rev?*%
%TF.SameCoordinates,Original*%
%TF.FileFunction,Copper,L1,Top*%
%TF.FilePolarity,Positive*%
%FSLAX46Y46*%
G04 Gerber Fmt 4.6, Leading zero omitted, Abs format (unit mm)*
G04 Created by KiCad (PCBNEW 8.0.8) date 2025-09-03 22:29:27*
%MOMM*%
%LPD*%
G01*
G04 APERTURE LIST*
G04 Aperture macros list*
%AMRoundRect*
0 Rectangle with rounded corners*
0 $1 Rounding radius*
0 $2 $3 $4 $5 $6 $7 $8 $9 X,Y pos of 4 corners*
0 Add a 4 corners polygon primitive as box body*
4,1,4,$2,$3,$4,$5,$6,$7,$8,$9,$2,$3,0*
0 Add four circle primitives for the rounded corners*
1,1,$1+$1,$2,$3*
1,1,$1+$1,$4,$5*
1,1,$1+$1,$6,$7*
1,1,$1+$1,$8,$9*
0 Add four rect primitives between the rounded corners*
20,1,$1+$1,$2,$3,$4,$5,0*
20,1,$1+$1,$4,$5,$6,$7,0*
20,1,$1+$1,$6,$7,$8,$9,0*
20,1,$1+$1,$8,$9,$2,$3,0*%
G04 Aperture macros list end*
%ADD10C,0.080000*%
%TA.AperFunction,NonConductor*%
%ADD11C,0.080000*%
%TD*%
%TA.AperFunction,SMDPad,CuDef*%
%ADD12R,0.300000X0.870000*%
%TD*%
%TA.AperFunction,ComponentPad*%
%ADD13O,1.400000X1.150000*%
%TD*%
%TA.AperFunction,SMDPad,CuDef*%
%ADD14RoundRect,0.135000X-0.135000X-0.185000X0.135000X-0.185000X0.135000X0.185000X-0.135000X0.185000X0*%
%TD*%
%TA.AperFunction,SMDPad,CuDef*%
%ADD15RoundRect,0.140000X-0.170000X0.140000X-0.170000X-0.140000X0.170000X-0.140000X0.170000X0.140000X0*%
%TD*%
%TA.AperFunction,SMDPad,CuDef*%
%ADD16RoundRect,0.100000X0.637500X0.100000X-0.637500X0.100000X-0.637500X-0.100000X0.637500X-0.100000X0*%
%TD*%
%TA.AperFunction,SMDPad,CuDef*%
%ADD17RoundRect,0.135000X0.135000X0.185000X-0.135000X0.185000X-0.135000X-0.185000X0.135000X-0.185000X0*%
%TD*%
%TA.AperFunction,SMDPad,CuDef*%
%ADD18R,1.000000X1.000000*%
%TD*%
%TA.AperFunction,SMDPad,CuDef*%
%ADD19R,0.355600X1.358900*%
%TD*%
%TA.AperFunction,SMDPad,CuDef*%
%ADD20RoundRect,0.140000X0.170000X-0.140000X0.170000X0.140000X-0.170000X0.140000X-0.170000X-0.140000X0*%
%TD*%
%TA.AperFunction,ViaPad*%
%ADD21C,0.600000*%
%TD*%
%TA.AperFunction,Conductor*%
%ADD22C,0.200000*%
%TD*%
G04 APERTURE END LIST*
D10*
D11*
X119000250Y-100534649D02*
X119166916Y-101034649D01*
X119166916Y-101034649D02*
X119333583Y-100534649D01*
X119476440Y-100582268D02*
X119500249Y-100558459D01*
X119500249Y-100558459D02*
X119547868Y-100534649D01*
X119547868Y-100534649D02*
X119666916Y-100534649D01*
X119666916Y-100534649D02*
X119714535Y-100558459D01*
X119714535Y-100558459D02*
X119738344Y-100582268D01*
X119738344Y-100582268D02*
X119762154Y-100629887D01*
X119762154Y-100629887D02*
X119762154Y-100677506D01*
X119762154Y-100677506D02*
X119738344Y-100748935D01*
X119738344Y-100748935D02*
X119452630Y-101034649D01*
X119452630Y-101034649D02*
X119762154Y-101034649D01*
D12*
%TO.P,J1,A1,GND_A*%
%TO.N,GND*%
X113700000Y-119715000D03*
%TO.P,J1,A4,VBUS_A*%
%TO.N,+5V*%
X112200000Y-119715000D03*
%TO.P,J1,A5,CC1*%
%TO.N,/CC1*%
X111700000Y-119715000D03*
%TO.P,J1,A6,DP1*%
%TO.N,unconnected-(J1-DP1-PadA6)*%
X111200000Y-119715000D03*
%TO.P,J1,A7,DN1*%
%TO.N,unconnected-(J1-DN1-PadA7)*%
X110700000Y-119715000D03*
%TO.P,J1,A8,SBU1*%
%TO.N,unconnected-(J1-SBU1-PadA8)*%
X110200000Y-119715000D03*
%TO.P,J1,A9,VBUS_A__1*%
%TO.N,+5V*%
X109700000Y-119715000D03*
%TO.P,J1,A12,GND_A__1*%
%TO.N,GND*%
X108200000Y-119715000D03*
%TO.P,J1,B1,GND_B*%
X108200000Y-117985000D03*
%TO.P,J1,B4,VBUS_B*%
%TO.N,+5V*%
X109700000Y-117985000D03*
%TO.P,J1,B5,CC2*%
%TO.N,/CC2*%
X110200000Y-117985000D03*
%TO.P,J1,B6,DP2*%
%TO.N,unconnected-(J1-DP2-PadB6)*%
X110700000Y-117985000D03*
%TO.P,J1,B7,DN2*%
%TO.N,unconnected-(J1-DN2-PadB7)*%
X111200000Y-117985000D03*
%TO.P,J1,B8,SBU2*%
%TO.N,unconnected-(J1-SBU2-PadB8)*%
X111700000Y-117985000D03*
%TO.P,J1,B9,VBUS_B__1*%
%TO.N,+5V*%
X112200000Y-117985000D03*
%TO.P,J1,B12,GND_B__1*%
%TO.N,GND*%
X113700000Y-117985000D03*
D13*
%TO.P,J1,SH1,SHIELD*%
X113350000Y-121000000D03*
%TO.P,J1,SH2,SHIELD__1*%
X108550000Y-121000000D03*
%TO.P,J1,SH3,SHIELD__2*%
X113350000Y-116700000D03*
%TO.P,J1,SH4,SHIELD__3*%
X108550000Y-116700000D03*
%TD*%
D14*
%TO.P,R5,1*%
%TO.N,/CC2*%
X110380000Y-116400000D03*
%TO.P,R5,2*%
%TO.N,GND*%
X111400000Y-116400000D03*
%TD*%
D15*
%TO.P,C3,1*%
%TO.N,+5V*%
X109600000Y-113800000D03*
%TO.P,C3,2*%
%TO.N,GND*%
X109600000Y-114760000D03*
%TD*%
D16*
%TO.P,U1,1,PD4_A7_T2AETR2*%
%TO.N,unconnected-(U1-PD4_A7_T2AETR2-Pad1)*%
X119325000Y-107750000D03*
%TO.P,U1,2,PD5_A5_UART_TX*%
%TO.N,unconnected-(U1-PD5_A5_UART_TX-Pad2)*%
X119325000Y-107100000D03*
%TO.P,U1,3,PD6_A6_UART_RX*%
%TO.N,unconnected-(U1-PD6_A6_UART_RX-Pad3)*%
X119325000Y-106450000D03*
%TO.P,U1,4,PD7_NRST_T2CH4*%
%TO.N,unconnected-(U1-PD7_NRST_T2CH4-Pad4)*%
X119325000Y-105800000D03*
%TO.P,U1,5,PA1_A1_T1CH2_OSCI*%
%TO.N,unconnected-(U1-PA1_A1_T1CH2_OSCI-Pad5)*%
X119325000Y-105150000D03*
%TO.P,U1,6,PA2_A0_T1CH2N_OSCO*%
%TO.N,unconnected-(U1-PA2_A0_T1CH2N_OSCO-Pad6)*%
X119325000Y-104500000D03*
%TO.P,U1,7,vss*%
%TO.N,GND*%
X119325000Y-103850000D03*
%TO.P,U1,8,PD0_T1CH1N*%
%TO.N,/EN*%
X119325000Y-103200000D03*
%TO.P,U1,9,VDD*%
%TO.N,+5V*%
X119325000Y-102550000D03*
%TO.P,U1,10,PC0_T2CH3*%
%TO.N,unconnected-(U1-PC0_T2CH3-Pad10)*%
X119325000Y-101900000D03*
%TO.P,U1,11,PC1_SDA*%
%TO.N,unconnected-(U1-PC1_SDA-Pad11)*%
X113600000Y-101900000D03*
%TO.P,U1,12,PC2_SCL*%
%TO.N,unconnected-(U1-PC2_SCL-Pad12)*%
X113600000Y-102550000D03*
%TO.P,U1,13,PC3*%
%TO.N,unconnected-(U1-PC3-Pad13)*%
X113600000Y-103200000D03*
%TO.P,U1,14,PC4_A2_T1CH4*%
%TO.N,/SCKLA*%
X113600000Y-103850000D03*
%TO.P,U1,15,PC5_SCK*%
%TO.N,/SCK*%
X113600000Y-104500000D03*
%TO.P,U1,16,PC6_MOSI*%
%TO.N,/MOSI*%
X113600000Y-105150000D03*
%TO.P,U1,17,PC7_MISO*%
%TO.N,unconnected-(U1-PC7_MISO-Pad17)*%
X113600000Y-105800000D03*
%TO.P,U1,18,SWIO&PD1_T1CH3N*%
%TO.N,/SWIO_TP*%
X113600000Y-106450000D03*
%TO.P,U1,19,PD2_A3_T2CH1*%
%TO.N,unconnected-(U1-PD2_A3_T2CH1-Pad19)*%
X113600000Y-107100000D03*
%TO.P,U1,20,PD2_A4_T1CH2*%
%TO.N,unconnected-(U1-PD2_A4_T1CH2-Pad20)*%
X113600000Y-107750000D03*
%TD*%
D17*
%TO.P,R1,1*%
%TO.N,/R_EXT*%
X108200000Y-115200000D03*
%TO.P,R1,2*%
%TO.N,GND*%
X107180000Y-115200000D03*
%TD*%
D18*
%TO.P,TP1,1,1*%
%TO.N,/SWIO_TP*%
X111100000Y-106700000D03*
%TD*%
D19*
%TO.P,U2,1,GND*%
%TO.N,GND*%
X108599916Y-107900000D03*
%TO.P,U2,2,SDI*%
%TO.N,/MOSI*%
X107949930Y-107900000D03*
%TO.P,U2,3,CLK*%
%TO.N,/SCK*%
X107299944Y-107900000D03*
%TO.P,U2,4,LE*%
%TO.N,/SCKLA*%
X106649958Y-107900000D03*
%TO.P,U2,5,OUT0*%
%TO.N,/LED1*%
X105999972Y-107900000D03*
%TO.P,U2,6,OUT1*%
%TO.N,/LED2*%
X105349986Y-107900000D03*
%TO.P,U2,7,OUT2*%
%TO.N,/LED3*%
X104700000Y-107900000D03*
%TO.P,U2,8,OUT3*%
%TO.N,/LED4*%
X104050014Y-107900000D03*
%TO.P,U2,9,OUT4*%
%TO.N,/LED5*%
X103400028Y-107900000D03*
%TO.P,U2,10,OUT5*%
%TO.N,/LED6*%
X102750042Y-107900000D03*
%TO.P,U2,11,OUT6*%
%TO.N,/LED7*%
X102100056Y-107900000D03*
%TO.P,U2,12,OUT7*%
%TO.N,/LED8*%
X101450070Y-107900000D03*
%TO.P,U2,13,OUT8*%
%TO.N,/LED9*%
X101450070Y-113754700D03*
%TO.P,U2,14,OUT9*%
%TO.N,/LED10*%
X102100056Y-113754700D03*
%TO.P,U2,15,OUT10*%
%TO.N,/LED11*%
X102750042Y-113754700D03*
%TO.P,U2,16,OUT11*%
%TO.N,/LED12*%
X103400028Y-113754700D03*
%TO.P,U2,17,OUT12*%
%TO.N,/LED13*%
X104050014Y-113754700D03*
%TO.P,U2,18,OUT13*%
%TO.N,/LED14*%
X104700000Y-113754700D03*
%TO.P,U2,19,OUT14*%
%TO.N,/LED15*%
X105349986Y-113754700D03*
%TO.P,U2,20,OUT15*%
%TO.N,/LED16*%
X105999972Y-113754700D03*
%TO.P,U2,21,OE*%
%TO.N,/EN*%
X106649958Y-113754700D03*
%TO.P,U2,22,SDO*%
%TO.N,unconnected-(U2A-SDO-Pad22)*%
X107299944Y-113754700D03*
%TO.P,U2,23,R-EXT*%
%TO.N,/R_EXT*%
X107949930Y-113754700D03*
%TO.P,U2,24,VDD*%
%TO.N,+5V*%
X108599916Y-113754700D03*
%TD*%
D17*
%TO.P,R4,2*%
%TO.N,GND*%
X110480000Y-121400000D03*
%TO.P,R4,1*%
%TO.N,/CC1*%
X111500000Y-121400000D03*
%TD*%
D20*
%TO.P,C1,1*%
%TO.N,+5V*%
X120800000Y-102460000D03*
%TO.P,C1,2*%
%TO.N,GND*%
X120800000Y-101500000D03*
%TD*%
D21*
%TO.N,GND*%
X110500000Y-120800000D03*
X111600000Y-115500000D03*
%TO.N,+5V*%
X110500000Y-113700000D03*
X111500000Y-113700000D03*
X112200000Y-118800000D03*
X105350000Y-118200000D03*
X102700000Y-106200000D03*
X110400000Y-103200000D03*
X119900000Y-113500000D03*
X110200000Y-108600000D03*
X115000000Y-113500000D03*
X115000000Y-102800000D03*
X120200000Y-108900000D03*
X109700000Y-118900000D03*
X118100000Y-102800000D03*
X105700000Y-103200000D03*
X102400000Y-115300000D03*
X115400000Y-109200000D03*
X119800000Y-118200000D03*
X121305514Y-103594486D03*
%TO.N,GND*%
X106500000Y-115200000D03*
X114600000Y-119800000D03*
X107000000Y-119800000D03*
X114800000Y-117900000D03*
X117900000Y-105200000D03*
X120800000Y-100700000D03*
X110500000Y-115000000D03*
X109900000Y-107400000D03*
X107100000Y-117900000D03*
%TO.N,/LED1*%
X106000000Y-106200000D03*
%TO.N,/LED2*%
X105200000Y-106200000D03*
%TO.N,/LED3*%
X104400000Y-106200000D03*
%TO.N,/LED4*%
X103600000Y-106200000D03*
%TO.N,/LED5*%
X103487349Y-110363784D03*
%TO.N,/LED6*%
X102910002Y-109810002D03*
%TO.N,/LED7*%
X102200000Y-109400000D03*
%TO.N,/LED8*%
X101400000Y-109400000D03*
%TO.N,/LED9*%
X101400000Y-112100000D03*
%TO.N,/LED10*%
X102200000Y-112100000D03*
%TO.N,/LED11*%
X102862228Y-111637772D03*
%TO.N,/LED12*%
X103506525Y-111163557D03*
%TO.N,/LED13*%
X103299988Y-115300000D03*
%TO.N,/LED14*%
X104099991Y-115300000D03*
%TO.N,/LED15*%
X104900000Y-115300000D03*
%TO.N,/LED16*%
X105700000Y-115300000D03*
%TD*%
D22*
%TO.N,GND*%
X110480000Y-120820000D02*
X110500000Y-120800000D01*
X110480000Y-121400000D02*
X110480000Y-120820000D01*
X110480000Y-120820000D02*
X110480000Y-121500000D01*
%TO.N,/CC2*%
X110200000Y-116580000D02*
X110380000Y-116400000D01*
X110200000Y-117985000D02*
X110200000Y-116580000D01*
%TO.N,GND*%
X111400000Y-116600000D02*
X111400000Y-115700000D01*
X111400000Y-115700000D02*
X111600000Y-115500000D01*
X113785000Y-119800000D02*
X113700000Y-119715000D01*
X114600000Y-119800000D02*
X113785000Y-119800000D01*
X107000000Y-119800000D02*
X107085000Y-119715000D01*
X107085000Y-119715000D02*
X108200000Y-119715000D01*
%TO.N,+5V*%
X112200000Y-117985000D02*
X112200000Y-118800000D01*
X109700000Y-119715000D02*
X109700000Y-118900000D01*
X109700000Y-118900000D02*
X109700000Y-117985000D01*
X112200000Y-118800000D02*
X112200000Y-119715000D01*
%TO.N,/CC1*%
X111700000Y-121300000D02*
X111500000Y-121500000D01*
X111700000Y-119715000D02*
X111700000Y-121300000D01*
%TO.N,+5V*%
X108599916Y-113754700D02*
X109554700Y-113754700D01*
X110400000Y-113800000D02*
X109600000Y-113800000D01*
X110500000Y-113700000D02*
X110400000Y-113800000D01*
X120800000Y-102460000D02*
X120800000Y-103088972D01*
X120710000Y-102550000D02*
X120800000Y-102460000D01*
X119325000Y-102550000D02*
X120710000Y-102550000D01*
X120800000Y-103088972D02*
X121305514Y-103594486D01*
X109554700Y-113754700D02*
X109600000Y-113800000D01*
%TO.N,GND*%
X108115000Y-117900000D02*
X108200000Y-117985000D01*
X107100000Y-117900000D02*
X108115000Y-117900000D01*
X118587501Y-103850000D02*
X117900000Y-104537501D01*
X113350000Y-120065000D02*
X113700000Y-119715000D01*
X108200000Y-117985000D02*
X108200000Y-117050000D01*
X109099916Y-107400000D02*
X108599916Y-107900000D01*
X108200000Y-117050000D02*
X108550000Y-116700000D01*
X114800000Y-117900000D02*
X113785000Y-117900000D01*
X108550000Y-120065000D02*
X108200000Y-119715000D01*
X106500000Y-115200000D02*
X107090000Y-115200000D01*
X120800000Y-101300000D02*
X120800000Y-100700000D01*
X110500000Y-115000000D02*
X110260000Y-114760000D01*
X110260000Y-114760000D02*
X109600000Y-114760000D01*
X109900000Y-107400000D02*
X109099916Y-107400000D01*
X113350000Y-117635000D02*
X113700000Y-117985000D01*
X108550000Y-121000000D02*
X108550000Y-120065000D01*
X119325000Y-103850000D02*
X118587501Y-103850000D01*
X113350000Y-116700000D02*
X113350000Y-117635000D01*
X117900000Y-104537501D02*
X117900000Y-105200000D01*
X113350000Y-121000000D02*
X113350000Y-120065000D01*
X113785000Y-117900000D02*
X113700000Y-117985000D01*
%TO.N,/EN*%
X121600000Y-104737501D02*
X120062499Y-103200000D01*
X109057716Y-112900000D02*
X119700000Y-112900000D01*
X106802144Y-112795250D02*
X108952966Y-112795250D01*
X106649958Y-112947436D02*
X106802144Y-112795250D01*
X119700000Y-112900000D02*
X121600000Y-111000000D01*
X121600000Y-111000000D02*
X121600000Y-104737501D01*
X120062499Y-103200000D02*
X119325000Y-103200000D01*
X108952966Y-112795250D02*
X109057716Y-112900000D01*
X106649958Y-113754700D02*
X106649958Y-112947436D01*
%TO.N,/SCK*%
X109800000Y-104500000D02*
X107299944Y-107000056D01*
X113900000Y-104500000D02*
X109800000Y-104500000D01*
X107299944Y-107000056D02*
X107299944Y-107900000D01*
%TO.N,/MOSI*%
X113900000Y-105150000D02*
X109820480Y-105150000D01*
X109820480Y-105150000D02*
X107949930Y-107020550D01*
X107949930Y-107020550D02*
X107949930Y-107900000D01*
%TO.N,/SCKLA*%
X109884314Y-103850000D02*
X106649958Y-107084356D01*
X113900000Y-103850000D02*
X109884314Y-103850000D01*
X106649958Y-107084356D02*
X106649958Y-107900000D01*
%TO.N,/LED1*%
X105999972Y-107900000D02*
X105999972Y-106200028D01*
X105999972Y-106200028D02*
X106000000Y-106200000D01*
%TO.N,/LED2*%
X105349986Y-107900000D02*
X105349986Y-106349986D01*
X105349986Y-106349986D02*
X105200000Y-106200000D01*
%TO.N,/LED3*%
X104700000Y-107900000D02*
X104700000Y-107020550D01*
X104400000Y-106720550D02*
X104400000Y-106200000D01*
X104700000Y-107020550D02*
X104400000Y-106720550D01*
%TO.N,/LED4*%
X104050014Y-107900000D02*
X104050014Y-106907966D01*
X104050014Y-106907966D02*
X103600000Y-106457952D01*
X103600000Y-106457952D02*
X103600000Y-106200000D01*
%TO.N,/LED5*%
X103487349Y-110363784D02*
X103487349Y-110081184D01*
X103510002Y-108009974D02*
X103400028Y-107900000D01*
X103487349Y-110081184D02*
X103510002Y-110058531D01*
X103510002Y-110058531D02*
X103510002Y-108009974D01*
%TO.N,/LED6*%
X102910002Y-109810002D02*
X102910002Y-109261473D01*
X102910002Y-109261473D02*
X102750042Y-109101513D01*
X102750042Y-109101513D02*
X102750042Y-107900000D01*
%TO.N,/LED7*%
X102100056Y-107900000D02*
X102100056Y-109300056D01*
X102100056Y-109300056D02*
X102200000Y-109400000D01*
%TO.N,/LED8*%
X101450070Y-109349930D02*
X101400000Y-109400000D01*
X101450070Y-107900000D02*
X101450070Y-109349930D01*
%TO.N,/LED9*%
X101450070Y-113754700D02*
X101450070Y-112150070D01*
X101450070Y-112150070D02*
X101400000Y-112100000D01*
%TO.N,/LED10*%
X102100056Y-112199944D02*
X102200000Y-112100000D01*
X102100056Y-113754700D02*
X102100056Y-112199944D01*
%TO.N,/LED11*%
X102862228Y-111789243D02*
X102800000Y-111851471D01*
X102800000Y-111851471D02*
X102800000Y-112348529D01*
X102862228Y-111637772D02*
X102862228Y-111789243D01*
X102750042Y-112398487D02*
X102750042Y-113754700D01*
X102800000Y-112348529D02*
X102750042Y-112398487D01*
%TO.N,/LED12*%
X103506525Y-112880939D02*
X103400028Y-112987436D01*
X103400028Y-112987436D02*
X103400028Y-113754700D01*
X103506525Y-111163557D02*
X103506525Y-112880939D01*
%TO.N,/LED13*%
X103299988Y-115151474D02*
X104050014Y-114401448D01*
X104050014Y-114401448D02*
X104050014Y-113754700D01*
X103299988Y-115300000D02*
X103299988Y-115151474D01*
%TO.N,/LED14*%
X104099991Y-115300000D02*
X104099991Y-115051474D01*
X104700000Y-114451465D02*
X104700000Y-113754700D01*
X104099991Y-115051474D02*
X104700000Y-114451465D01*
%TO.N,/LED15*%
X104900000Y-114971950D02*
X105349986Y-114521964D01*
X104900000Y-115300000D02*
X104900000Y-114971950D01*
X105349986Y-114521964D02*
X105349986Y-113754700D01*
%TO.N,/LED16*%
X105700000Y-115300000D02*
X105700000Y-115051471D01*
X105700000Y-115051471D02*
X105999972Y-114751499D01*
X105999972Y-114751499D02*
X105999972Y-113754700D01*
%TO.N,/R_EXT*%
X107949930Y-114949930D02*
X108200000Y-115200000D01*
X107949930Y-113754700D02*
X107949930Y-114949930D01*
%TO.N,/SWIO_TP*%
X111350000Y-106450000D02*
X111100000Y-106700000D01*
X113600000Y-106450000D02*
X111350000Y-106450000D01*
%TD*%
M02*
