%TF.GenerationSoftware,KiCad,Pcbnew,8.0.8*%
%TF.CreationDate,2025-09-03T22:29:27+08:00*%
%TF.ProjectId,FrekLedMini,4672656b-4c65-4644-9d69-6e692e6b6963,rev?*%
%TF.SameCoordinates,Original*%
%TF.FileFunction,Soldermask,Top*%
%TF.FilePolarity,Negative*%
%FSLAX46Y46*%
G04 Gerber Fmt 4.6, Leading zero omitted, Abs format (unit mm)*
G04 Created by KiCad (PCBNEW 8.0.8) date 2025-09-03 22:29:27*
%MOMM*%
%LPD*%
G01*
G04 APERTURE LIST*
G04 Aperture macros list*
%AMRoundRect*
0 Rectangle with rounded corners*
0 $1 Rounding radius*
0 $2 $3 $4 $5 $6 $7 $8 $9 X,Y pos of 4 corners*
0 Add a 4 corners polygon primitive as box body*
4,1,4,$2,$3,$4,$5,$6,$7,$8,$9,$2,$3,0*
0 Add four circle primitives for the rounded corners*
1,1,$1+$1,$2,$3*
1,1,$1+$1,$4,$5*
1,1,$1+$1,$6,$7*
1,1,$1+$1,$8,$9*
0 Add four rect primitives between the rounded corners*
20,1,$1+$1,$2,$3,$4,$5,0*
20,1,$1+$1,$4,$5,$6,$7,0*
20,1,$1+$1,$6,$7,$8,$9,0*
20,1,$1+$1,$8,$9,$2,$3,0*%
G04 Aperture macros list end*
%ADD10C,0.100000*%
%ADD11C,0.570000*%
%ADD12O,1.604000X1.354000*%
%ADD13RoundRect,0.135000X-0.135000X-0.185000X0.135000X-0.185000X0.135000X0.185000X-0.135000X0.185000X0*%
%ADD14RoundRect,0.140000X-0.170000X0.140000X-0.170000X-0.140000X0.170000X-0.140000X0.170000X0.140000X0*%
%ADD15RoundRect,0.100000X0.637500X0.100000X-0.637500X0.100000X-0.637500X-0.100000X0.637500X-0.100000X0*%
%ADD16RoundRect,0.135000X0.135000X0.185000X-0.135000X0.185000X-0.135000X-0.185000X0.135000X-0.185000X0*%
%ADD17R,1.000000X1.000000*%
%ADD18R,0.355600X1.358900*%
%ADD19RoundRect,0.140000X0.170000X-0.140000X0.170000X0.140000X-0.170000X0.140000X-0.170000X-0.140000X0*%
%ADD20C,0.600000*%
G04 APERTURE END LIST*
D10*
%TO.C,J1*%
X108400000Y-118470000D02*
X108000000Y-118470000D01*
X108000000Y-117500000D01*
X108400000Y-117500000D01*
X108400000Y-118470000D01*
G36*
X108400000Y-118470000D02*
G01*
X108000000Y-118470000D01*
X108000000Y-117500000D01*
X108400000Y-117500000D01*
X108400000Y-118470000D01*
G37*
X108400000Y-120200000D02*
X108000000Y-120200000D01*
X108000000Y-119230000D01*
X108400000Y-119230000D01*
X108400000Y-120200000D01*
G36*
X108400000Y-120200000D02*
G01*
X108000000Y-120200000D01*
X108000000Y-119230000D01*
X108400000Y-119230000D01*
X108400000Y-120200000D01*
G37*
X109900000Y-118470000D02*
X109500000Y-118470000D01*
X109500000Y-117500000D01*
X109900000Y-117500000D01*
X109900000Y-118470000D01*
G36*
X109900000Y-118470000D02*
G01*
X109500000Y-118470000D01*
X109500000Y-117500000D01*
X109900000Y-117500000D01*
X109900000Y-118470000D01*
G37*
X109900000Y-120200000D02*
X109500000Y-120200000D01*
X109500000Y-119230000D01*
X109900000Y-119230000D01*
X109900000Y-120200000D01*
G36*
X109900000Y-120200000D02*
G01*
X109500000Y-120200000D01*
X109500000Y-119230000D01*
X109900000Y-119230000D01*
X109900000Y-120200000D01*
G37*
X110400000Y-118470000D02*
X110000000Y-118470000D01*
X110000000Y-117500000D01*
X110400000Y-117500000D01*
X110400000Y-118470000D01*
G36*
X110400000Y-118470000D02*
G01*
X110000000Y-118470000D01*
X110000000Y-117500000D01*
X110400000Y-117500000D01*
X110400000Y-118470000D01*
G37*
X110400000Y-120200000D02*
X110000000Y-120200000D01*
X110000000Y-119230000D01*
X110400000Y-119230000D01*
X110400000Y-120200000D01*
G36*
X110400000Y-120200000D02*
G01*
X110000000Y-120200000D01*
X110000000Y-119230000D01*
X110400000Y-119230000D01*
X110400000Y-120200000D01*
G37*
X110900000Y-118470000D02*
X110500000Y-118470000D01*
X110500000Y-117500000D01*
X110900000Y-117500000D01*
X110900000Y-118470000D01*
G36*
X110900000Y-118470000D02*
G01*
X110500000Y-118470000D01*
X110500000Y-117500000D01*
X110900000Y-117500000D01*
X110900000Y-118470000D01*
G37*
X110900000Y-120200000D02*
X110500000Y-120200000D01*
X110500000Y-119230000D01*
X110900000Y-119230000D01*
X110900000Y-120200000D01*
G36*
X110900000Y-120200000D02*
G01*
X110500000Y-120200000D01*
X110500000Y-119230000D01*
X110900000Y-119230000D01*
X110900000Y-120200000D01*
G37*
X111400000Y-118470000D02*
X111000000Y-118470000D01*
X111000000Y-117500000D01*
X111400000Y-117500000D01*
X111400000Y-118470000D01*
G36*
X111400000Y-118470000D02*
G01*
X111000000Y-118470000D01*
X111000000Y-117500000D01*
X111400000Y-117500000D01*
X111400000Y-118470000D01*
G37*
X111400000Y-120200000D02*
X111000000Y-120200000D01*
X111000000Y-119230000D01*
X111400000Y-119230000D01*
X111400000Y-120200000D01*
G36*
X111400000Y-120200000D02*
G01*
X111000000Y-120200000D01*
X111000000Y-119230000D01*
X111400000Y-119230000D01*
X111400000Y-120200000D01*
G37*
X111900000Y-118470000D02*
X111500000Y-118470000D01*
X111500000Y-117500000D01*
X111900000Y-117500000D01*
X111900000Y-118470000D01*
G36*
X111900000Y-118470000D02*
G01*
X111500000Y-118470000D01*
X111500000Y-117500000D01*
X111900000Y-117500000D01*
X111900000Y-118470000D01*
G37*
X111900000Y-120200000D02*
X111500000Y-120200000D01*
X111500000Y-119230000D01*
X111900000Y-119230000D01*
X111900000Y-120200000D01*
G36*
X111900000Y-120200000D02*
G01*
X111500000Y-120200000D01*
X111500000Y-119230000D01*
X111900000Y-119230000D01*
X111900000Y-120200000D01*
G37*
X112400000Y-118470000D02*
X112000000Y-118470000D01*
X112000000Y-117500000D01*
X112400000Y-117500000D01*
X112400000Y-118470000D01*
G36*
X112400000Y-118470000D02*
G01*
X112000000Y-118470000D01*
X112000000Y-117500000D01*
X112400000Y-117500000D01*
X112400000Y-118470000D01*
G37*
X112400000Y-120200000D02*
X112000000Y-120200000D01*
X112000000Y-119230000D01*
X112400000Y-119230000D01*
X112400000Y-120200000D01*
G36*
X112400000Y-120200000D02*
G01*
X112000000Y-120200000D01*
X112000000Y-119230000D01*
X112400000Y-119230000D01*
X112400000Y-120200000D01*
G37*
X113900000Y-118470000D02*
X113500000Y-118470000D01*
X113500000Y-117500000D01*
X113900000Y-117500000D01*
X113900000Y-118470000D01*
G36*
X113900000Y-118470000D02*
G01*
X113500000Y-118470000D01*
X113500000Y-117500000D01*
X113900000Y-117500000D01*
X113900000Y-118470000D01*
G37*
X113900000Y-120200000D02*
X113500000Y-120200000D01*
X113500000Y-119230000D01*
X113900000Y-119230000D01*
X113900000Y-120200000D01*
G36*
X113900000Y-120200000D02*
G01*
X113500000Y-120200000D01*
X113500000Y-119230000D01*
X113900000Y-119230000D01*
X113900000Y-120200000D01*
G37*
X107320000Y-118466000D02*
X107340000Y-118467000D01*
X107360000Y-118470000D01*
X107380000Y-118473000D01*
X107400000Y-118478000D01*
X107419000Y-118484000D01*
X107438000Y-118491000D01*
X107457000Y-118498000D01*
X107475000Y-118507000D01*
X107493000Y-118517000D01*
X107510000Y-118527000D01*
X107526000Y-118539000D01*
X107542000Y-118551000D01*
X107558000Y-118564000D01*
X107572000Y-118578000D01*
X107586000Y-118592000D01*
X107599000Y-118608000D01*
X107611000Y-118624000D01*
X107623000Y-118640000D01*
X107633000Y-118657000D01*
X107643000Y-118675000D01*
X107652000Y-118693000D01*
X107659000Y-118712000D01*
X107666000Y-118731000D01*
X107672000Y-118750000D01*
X107677000Y-118770000D01*
X107680000Y-118790000D01*
X107683000Y-118810000D01*
X107684000Y-118830000D01*
X107685000Y-118850000D01*
X107684000Y-118870000D01*
X107683000Y-118890000D01*
X107680000Y-118910000D01*
X107677000Y-118930000D01*
X107672000Y-118950000D01*
X107666000Y-118969000D01*
X107659000Y-118988000D01*
X107652000Y-119007000D01*
X107643000Y-119025000D01*
X107633000Y-119042000D01*
X107623000Y-119060000D01*
X107611000Y-119076000D01*
X107599000Y-119092000D01*
X107586000Y-119108000D01*
X107572000Y-119122000D01*
X107558000Y-119136000D01*
X107542000Y-119149000D01*
X107526000Y-119161000D01*
X107510000Y-119173000D01*
X107492000Y-119183000D01*
X107475000Y-119193000D01*
X107457000Y-119202000D01*
X107438000Y-119209000D01*
X107419000Y-119216000D01*
X107400000Y-119222000D01*
X107380000Y-119227000D01*
X107360000Y-119230000D01*
X107340000Y-119233000D01*
X107320000Y-119234000D01*
X107300000Y-119235000D01*
X107100000Y-119235000D01*
X107080000Y-119234000D01*
X107060000Y-119233000D01*
X107040000Y-119230000D01*
X107020000Y-119227000D01*
X107000000Y-119222000D01*
X106981000Y-119216000D01*
X106962000Y-119209000D01*
X106943000Y-119202000D01*
X106925000Y-119193000D01*
X106907000Y-119183000D01*
X106890000Y-119173000D01*
X106874000Y-119161000D01*
X106858000Y-119149000D01*
X106842000Y-119136000D01*
X106828000Y-119122000D01*
X106814000Y-119108000D01*
X106801000Y-119092000D01*
X106789000Y-119076000D01*
X106777000Y-119060000D01*
X106767000Y-119042000D01*
X106757000Y-119025000D01*
X106748000Y-119007000D01*
X106741000Y-118988000D01*
X106734000Y-118969000D01*
X106728000Y-118950000D01*
X106723000Y-118930000D01*
X106720000Y-118910000D01*
X106717000Y-118890000D01*
X106716000Y-118870000D01*
X106715000Y-118850000D01*
X106716000Y-118830000D01*
X106717000Y-118810000D01*
X106720000Y-118790000D01*
X106723000Y-118770000D01*
X106728000Y-118750000D01*
X106734000Y-118731000D01*
X106741000Y-118712000D01*
X106748000Y-118693000D01*
X106757000Y-118675000D01*
X106767000Y-118658000D01*
X106777000Y-118640000D01*
X106789000Y-118624000D01*
X106801000Y-118608000D01*
X106814000Y-118592000D01*
X106828000Y-118578000D01*
X106842000Y-118564000D01*
X106858000Y-118551000D01*
X106874000Y-118539000D01*
X106890000Y-118527000D01*
X106907000Y-118517000D01*
X106925000Y-118507000D01*
X106943000Y-118498000D01*
X106962000Y-118491000D01*
X106981000Y-118484000D01*
X107000000Y-118478000D01*
X107020000Y-118473000D01*
X107040000Y-118470000D01*
X107060000Y-118467000D01*
X107080000Y-118466000D01*
X107100000Y-118465000D01*
X107300000Y-118465000D01*
X107320000Y-118466000D01*
G36*
X107320000Y-118466000D02*
G01*
X107340000Y-118467000D01*
X107360000Y-118470000D01*
X107380000Y-118473000D01*
X107400000Y-118478000D01*
X107419000Y-118484000D01*
X107438000Y-118491000D01*
X107457000Y-118498000D01*
X107475000Y-118507000D01*
X107493000Y-118517000D01*
X107510000Y-118527000D01*
X107526000Y-118539000D01*
X107542000Y-118551000D01*
X107558000Y-118564000D01*
X107572000Y-118578000D01*
X107586000Y-118592000D01*
X107599000Y-118608000D01*
X107611000Y-118624000D01*
X107623000Y-118640000D01*
X107633000Y-118657000D01*
X107643000Y-118675000D01*
X107652000Y-118693000D01*
X107659000Y-118712000D01*
X107666000Y-118731000D01*
X107672000Y-118750000D01*
X107677000Y-118770000D01*
X107680000Y-118790000D01*
X107683000Y-118810000D01*
X107684000Y-118830000D01*
X107685000Y-118850000D01*
X107684000Y-118870000D01*
X107683000Y-118890000D01*
X107680000Y-118910000D01*
X107677000Y-118930000D01*
X107672000Y-118950000D01*
X107666000Y-118969000D01*
X107659000Y-118988000D01*
X107652000Y-119007000D01*
X107643000Y-119025000D01*
X107633000Y-119042000D01*
X107623000Y-119060000D01*
X107611000Y-119076000D01*
X107599000Y-119092000D01*
X107586000Y-119108000D01*
X107572000Y-119122000D01*
X107558000Y-119136000D01*
X107542000Y-119149000D01*
X107526000Y-119161000D01*
X107510000Y-119173000D01*
X107492000Y-119183000D01*
X107475000Y-119193000D01*
X107457000Y-119202000D01*
X107438000Y-119209000D01*
X107419000Y-119216000D01*
X107400000Y-119222000D01*
X107380000Y-119227000D01*
X107360000Y-119230000D01*
X107340000Y-119233000D01*
X107320000Y-119234000D01*
X107300000Y-119235000D01*
X107100000Y-119235000D01*
X107080000Y-119234000D01*
X107060000Y-119233000D01*
X107040000Y-119230000D01*
X107020000Y-119227000D01*
X107000000Y-119222000D01*
X106981000Y-119216000D01*
X106962000Y-119209000D01*
X106943000Y-119202000D01*
X106925000Y-119193000D01*
X106907000Y-119183000D01*
X106890000Y-119173000D01*
X106874000Y-119161000D01*
X106858000Y-119149000D01*
X106842000Y-119136000D01*
X106828000Y-119122000D01*
X106814000Y-119108000D01*
X106801000Y-119092000D01*
X106789000Y-119076000D01*
X106777000Y-119060000D01*
X106767000Y-119042000D01*
X106757000Y-119025000D01*
X106748000Y-119007000D01*
X106741000Y-118988000D01*
X106734000Y-118969000D01*
X106728000Y-118950000D01*
X106723000Y-118930000D01*
X106720000Y-118910000D01*
X106717000Y-118890000D01*
X106716000Y-118870000D01*
X106715000Y-118850000D01*
X106716000Y-118830000D01*
X106717000Y-118810000D01*
X106720000Y-118790000D01*
X106723000Y-118770000D01*
X106728000Y-118750000D01*
X106734000Y-118731000D01*
X106741000Y-118712000D01*
X106748000Y-118693000D01*
X106757000Y-118675000D01*
X106767000Y-118658000D01*
X106777000Y-118640000D01*
X106789000Y-118624000D01*
X106801000Y-118608000D01*
X106814000Y-118592000D01*
X106828000Y-118578000D01*
X106842000Y-118564000D01*
X106858000Y-118551000D01*
X106874000Y-118539000D01*
X106890000Y-118527000D01*
X106907000Y-118517000D01*
X106925000Y-118507000D01*
X106943000Y-118498000D01*
X106962000Y-118491000D01*
X106981000Y-118484000D01*
X107000000Y-118478000D01*
X107020000Y-118473000D01*
X107040000Y-118470000D01*
X107060000Y-118467000D01*
X107080000Y-118466000D01*
X107100000Y-118465000D01*
X107300000Y-118465000D01*
X107320000Y-118466000D01*
G37*
%TD*%
D11*
%TO.C,J1*%
X114700000Y-118850000D03*
D12*
X113350000Y-121000000D03*
X108550000Y-121000000D03*
X113350000Y-116700000D03*
X108550000Y-116700000D03*
%TD*%
D13*
%TO.C,R5*%
X110380000Y-116400000D03*
X111400000Y-116400000D03*
%TD*%
D14*
%TO.C,C3*%
X109600000Y-113800000D03*
X109600000Y-114760000D03*
%TD*%
D15*
%TO.C,U1*%
X119325000Y-107750000D03*
X119325000Y-107100000D03*
X119325000Y-106450000D03*
X119325000Y-105800000D03*
X119325000Y-105150000D03*
X119325000Y-104500000D03*
X119325000Y-103850000D03*
X119325000Y-103200000D03*
X119325000Y-102550000D03*
X119325000Y-101900000D03*
X113600000Y-101900000D03*
X113600000Y-102550000D03*
X113600000Y-103200000D03*
X113600000Y-103850000D03*
X113600000Y-104500000D03*
X113600000Y-105150000D03*
X113600000Y-105800000D03*
X113600000Y-106450000D03*
X113600000Y-107100000D03*
X113600000Y-107750000D03*
%TD*%
D16*
%TO.C,R1*%
X108200000Y-115200000D03*
X107180000Y-115200000D03*
%TD*%
D17*
%TO.C,TP1*%
X111100000Y-106700000D03*
%TD*%
D18*
%TO.C,U2*%
X108599916Y-107900000D03*
X107949930Y-107900000D03*
X107299944Y-107900000D03*
X106649958Y-107900000D03*
X105999972Y-107900000D03*
X105349986Y-107900000D03*
X104700000Y-107900000D03*
X104050014Y-107900000D03*
X103400028Y-107900000D03*
X102750042Y-107900000D03*
X102100056Y-107900000D03*
X101450070Y-107900000D03*
X101450070Y-113754700D03*
X102100056Y-113754700D03*
X102750042Y-113754700D03*
X103400028Y-113754700D03*
X104050014Y-113754700D03*
X104700000Y-113754700D03*
X105349986Y-113754700D03*
X105999972Y-113754700D03*
X106649958Y-113754700D03*
X107299944Y-113754700D03*
X107949930Y-113754700D03*
X108599916Y-113754700D03*
%TD*%
D16*
%TO.C,R4*%
X110480000Y-121400000D03*
X111500000Y-121400000D03*
%TD*%
D19*
%TO.C,C1*%
X120800000Y-102460000D03*
X120800000Y-101500000D03*
%TD*%
D20*
X110500000Y-120800000D03*
X111600000Y-115500000D03*
X110500000Y-113700000D03*
X111500000Y-113700000D03*
X112200000Y-118800000D03*
X105350000Y-118200000D03*
X102700000Y-106200000D03*
X110400000Y-103200000D03*
X119900000Y-113500000D03*
X110200000Y-108600000D03*
X115000000Y-113500000D03*
X115000000Y-102800000D03*
X120200000Y-108900000D03*
X109700000Y-118900000D03*
X118100000Y-102800000D03*
X105700000Y-103200000D03*
X102400000Y-115300000D03*
X115400000Y-109200000D03*
X119800000Y-118200000D03*
X121305514Y-103594486D03*
X106500000Y-115200000D03*
X114600000Y-119800000D03*
X107000000Y-119800000D03*
X114800000Y-117900000D03*
X117900000Y-105200000D03*
X120800000Y-100700000D03*
X110500000Y-115000000D03*
X109900000Y-107400000D03*
X107100000Y-117900000D03*
X106000000Y-106200000D03*
X105200000Y-106200000D03*
X104400000Y-106200000D03*
X103600000Y-106200000D03*
X103487349Y-110363784D03*
X102910002Y-109810002D03*
X102200000Y-109400000D03*
X101400000Y-109400000D03*
X101400000Y-112100000D03*
X102200000Y-112100000D03*
X102862228Y-111637772D03*
X103506525Y-111163557D03*
X103299988Y-115300000D03*
X104099991Y-115300000D03*
X104900000Y-115300000D03*
X105700000Y-115300000D03*
M02*
